  0
SECTION
  2
HEADER
  9
$ACADVER
  1
AC1015
  9
$ACADMAINTVER
 70
               6
  9
$DWGCODEPAGE
  3
ANSI_932
  9
$INSBASE
 10
0.0
 20
0.0
 30
0.0
  9
$EXTMIN
 10
-148.5
 20
-105.00000000000001
 30
0.0
  9
$EXTMAX
 10
148.5
 20
105.00000000000001
 30
0.0
  9
$LIMMIN
 10
0.0
 20
0.0
  9
$LIMMAX
 10
0.0
 20
0.0
  9
$ORTHOMODE
 70
               0
  9
$REGENMODE
 70
               1
  9
$FILLMODE
 70
               1
  9
$QTEXTMODE
 70
               0
  9
$MIRRTEXT
 70
               1
  9
$LTSCALE
 40
5.0800000000000001
  9
$ATTMODE
 70
               1
  9
$TEXTSIZE
 40
0.2
  9
$TRACEWID
 40
1.0
  9
$TEXTSTYLE
  7
Standard
  9
$CLAYER
  8
Éíû@
  9
$CELTYPE
  6
Continuous
  9
$CECOLOR
 62
             256
  9
$CELTSCALE
 40
1.0
  9
$DISPSILH
 70
               0
  9
$DIMSCALE
 40
1.0
  9
$DIMASZ
 40
1.9998779296874998
  9
$DIMEXO
 40
1.5900000000000001
  9
$DIMDLI
 40
3.0
  9
$DIMRND
 40
0.0
  9
$DIMDLE
 40
1.5900000000000001
  9
$DIMEXE
 40
3.1800000000000002
  9
$DIMTP
 40
0.0
  9
$DIMTM
 40
0.0
  9
$DIMTXT
 40
34.196017795138893
  9
$DIMCEN
 40
0.0
  9
$DIMTSZ
 40
0.0
  9
$DIMTOL
 70
               0
  9
$DIMLIM
 70
               0
  9
$DIMTIH
 70
               0
  9
$DIMTOH
 70
               0
  9
$DIMSE1
 70
               0
  9
$DIMSE2
 70
               0
  9
$DIMTAD
 70
               1
  9
$DIMZIN
 70
              11
  9
$DIMBLK
  1
VW_FILLEDARROW
  9
$DIMASO
 70
               1
  9
$DIMSHO
 70
               1
  9
$DIMPOST
  1
<>
  9
$DIMAPOST
  1
[]
  9
$DIMALT
 70
               0
  9
$DIMALTD
 70
               2
  9
$DIMALTF
 40
1.0
  9
$DIMLFAC
 40
1.0
  9
$DIMTOFL
 70
               1
  9
$DIMTVP
 40
0.0
  9
$DIMTIX
 70
               1
  9
$DIMSOXD
 70
               0
  9
$DIMSAH
 70
               0
  9
$DIMBLK1
  1

  9
$DIMBLK2
  1

  9
$DIMSTYLE
  2
âJâXâ^âÇ
  9
$DIMCLRD
 70
               0
  9
$DIMCLRE
 70
               0
  9
$DIMCLRT
 70
               0
  9
$DIMTFAC
 40
1.0
  9
$DIMGAP
 40
1.5874999999999999
  9
$DIMJUST
 70
               0
  9
$DIMSD1
 70
               0
  9
$DIMSD2
 70
               0
  9
$DIMTOLJ
 70
               1
  9
$DIMTZIN
 70
              11
  9
$DIMALTZ
 70
              11
  9
$DIMALTTZ
 70
              11
  9
$DIMUPT
 70
               0
  9
$DIMDEC
 70
               2
  9
$DIMTDEC
 70
               2
  9
$DIMALTU
 70
               2
  9
$DIMALTTD
 70
               2
  9
$DIMTXSTY
  7
élér éoû¥Æ®
  9
$DIMAUNIT
 70
               0
  9
$DIMADEC
 70
               0
  9
$DIMALTRND
 40
0.0
  9
$DIMAZIN
 70
               0
  9
$DIMDSEP
 70
              46
  9
$DIMATFIT
 70
               0
  9
$DIMFRAC
 70
               2
  9
$DIMLDRBLK
  1

  9
$DIMLUNIT
 70
               2
  9
$DIMLWD
 70
              -2
  9
$DIMLWE
 70
              -2
  9
$DIMTMOVE
 70
               0
  9
$LUNITS
 70
               2
  9
$LUPREC
 70
               4
  9
$SKETCHINC
 40
0.1
  9
$FILLETRAD
 40
0.0
  9
$AUNITS
 70
               0
  9
$AUPREC
 70
               0
  9
$MENU
  1
acad
  9
$ELEVATION
 40
0.0
  9
$PELEVATION
 40
0.0
  9
$THICKNESS
 40
0.0
  9
$LIMCHECK
 70
               0
  9
$CHAMFERA
 40
0.0
  9
$CHAMFERB
 40
0.0
  9
$CHAMFERC
 40
0.0
  9
$CHAMFERD
 40
0.0
  9
$SKPOLY
 70
               0
  9
$TDCREATE
 40
2461152.446990741
  9
$TDUCREATE
 40
0.000000000
  9
$TDUPDATE
 40
2461152.446990741
  9
$TDUUPDATE
 40
0.000000000
  9
$TDINDWG
 40
0.0000000000
  9
$TDUSRTIMER
 40
0.0000000000
  9
$USRTIMER
 70
               1
  9
$ANGBASE
 50
0.0
  9
$ANGDIR
 70
               0
  9
$PDMODE
 70
               1
  9
$PDSIZE
 40
-2.0
  9
$PLINEWID
 40
0.0
  9
$SPLFRAME
 70
               0
  9
$SPLINETYPE
 70
               6
  9
$SPLINESEGS
 70
               8
  9
$HANDSEED
  5
153
  9
$SURFTAB1
 70
               6
  9
$SURFTAB2
 70
               6
  9
$SURFTYPE
 70
               6
  9
$SURFU
 70
               6
  9
$SURFV
 70
               6
  9
$UCSBASE
  2

  9
$UCSNAME
  2

  9
$UCSORG
 10
0.0
 20
0.0
 30
0.0
  9
$UCSXDIR
 10
1.0
 20
0.0
 30
0.0
  9
$UCSYDIR
 10
0.0
 20
1.0
 30
0.0
  9
$UCSORTHOREF
  2

  9
$UCSORTHOVIEW
 70
               0
  9
$UCSORGTOP
 10
0.0
 20
0.0
 30
0.0
  9
$UCSORGBOTTOM
 10
0.0
 20
0.0
 30
0.0
  9
$UCSORGLEFT
 10
0.0
 20
0.0
 30
0.0
  9
$UCSORGRIGHT
 10
0.0
 20
0.0
 30
0.0
  9
$UCSORGFRONT
 10
0.0
 20
0.0
 30
0.0
  9
$UCSORGBACK
 10
0.0
 20
0.0
 30
0.0
  9
$PUCSBASE
  2

  9
$PUCSNAME
  2

  9
$PUCSORG
 10
0.0
 20
0.0
 30
0.0
  9
$PUCSXDIR
 10
1.0
 20
0.0
 30
0.0
  9
$PUCSYDIR
 10
0.0
 20
1.0
 30
0.0
  9
$PUCSORTHOREF
  2

  9
$PUCSORTHOVIEW
 70
               0
  9
$PUCSORGTOP
 10
0.0
 20
0.0
 30
0.0
  9
$PUCSORGBOTTOM
 10
0.0
 20
0.0
 30
0.0
  9
$PUCSORGLEFT
 10
0.0
 20
0.0
 30
0.0
  9
$PUCSORGRIGHT
 10
0.0
 20
0.0
 30
0.0
  9
$PUCSORGFRONT
 10
0.0
 20
0.0
 30
0.0
  9
$PUCSORGBACK
 10
0.0
 20
0.0
 30
0.0
  9
$USERI1
 70
               0
  9
$USERI2
 70
               0
  9
$USERI3
 70
               0
  9
$USERI4
 70
               0
  9
$USERI5
 70
               0
  9
$USERR1
 40
0.0
  9
$USERR2
 40
0.0
  9
$USERR3
 40
0.0
  9
$USERR4
 40
0.0
  9
$USERR5
 40
0.0
  9
$WORLDVIEW
 70
               1
  9
$SHADEDGE
 70
               3
  9
$SHADEDIF
 70
              70
  9
$TILEMODE
 70
               0
  9
$MAXACTVP
 70
              64
  9
$PINSBASE
 10
0.0
 20
0.0
 30
0.0
  9
$PLIMCHECK
 70
               0
  9
$PEXTMIN
 10
-113.16151964235154
 20
-93.242102915751104
 30
0.0
  9
$PEXTMAX
 10
148.31558467093845
 20
104.51550508215597
 30
0.0
  9
$PLIMMIN
 10
-155.92500000000001
 20
-110.25000000000001
  9
$PLIMMAX
 10
155.92500000000001
 20
110.25000000000001
  9
$UNITMODE
 70
               0
  9
$VISRETAIN
 70
               0
  9
$PLINEGEN
 70
               1
  9
$PSLTSCALE
 70
               1
  9
$TREEDEPTH
 70
            3020
  9
$CMLSTYLE
  2
Standard
  9
$CMLJUST
 70
               0
  9
$CMLSCALE
 40
1.0
  9
$PROXYGRAPHICS
 70
               0
  9
$MEASUREMENT
 70
               1
  9
$CELWEIGHT
370
               0
  9
$ENDCAPS
280
               0
  9
$JOINSTYLE
280
               0
  9
$LWDISPLAY
290
               1
  9
$INSUNITS
 70
               4
  9
$HYPERLINKBASE
  1

  9
$STYLESHEET
  1

  9
$XEDIT
290
               1
  9
$CEPSNTYPE
380
               0
  9
$PSTYLEMODE
290
               1
  9
$FINGERPRINTGUID
  2

  9
$VERSIONGUID
  2

  9
$EXTNAMES
290
               1
  9
$PSVPSCALE
 40
0.0
  0
ENDSEC
  0
SECTION
  2
CLASSES
  0
CLASS
  1
LWPOLYLINE
  2
AcDbPolyline
  3
AutoCAD 2000
 90
        0
280
               0
281
               1
  0
CLASS
  1
IMAGE
  2
AcDbRasterImage
  3
ISM
 90
      127
280
               0
281
               1
  0
CLASS
  1
OLE2FRAME
  2
AcDbOle2Frame
  3
AutoCAD 2000
 90
        0
280
               0
281
               1
  0
CLASS
  1
HATCH
  2
AcDbHatch
  3
AutoCAD 2000
 90
        0
280
               0
281
               1
  0
CLASS
  1
DICTIONARYVAR
  2
AcDbDictionaryVar
  3
AutoCAD 2000
 90
        0
280
               0
281
               0
  0
CLASS
  1
RASTERVARIABLES
  2
AcDbRasterVariables
  3
ISM
 90
        0
280
               0
281
               0
  0
CLASS
  1
IMAGEDEF
  2
AcDbRasterImageDef
  3
ISM
 90
        0
280
               0
281
               0
  0
CLASS
  1
IMAGEDEF_REACTOR
  2
AcDbRasterImageDefReactor
  3
ISM
 90
        1
280
               0
281
               0
  0
CLASS
  1
IDBUFFER
  2
AcDbIdBuffer
  3
AutoCAD 2000
 90
        0
280
               0
281
               0
  0
CLASS
  1
SPATIAL_FILTER
  2
AcDbSpatialFilter
  3
AutoCAD 2000
 90
        0
280
               0
281
               0
  0
CLASS
  1
XRECORD
  2
AcDbXrecord
  3
AutoCAD 2000
 90
        0
280
               0
281
               0
  0
CLASS
  1
SORTENTSTABLE
  2
AcDbSortentsTable
  3
AutoCAD 2000
 90
        0
280
               0
281
               0
  0
CLASS
  1
LAYER_INDEX
  2
AcDbLayerIndex
  3
AutoCAD 2000
 90
        0
280
               0
281
               0
  0
CLASS
  1
SPATIAL_INDEX
  2
AcDbSpatialIndex
  3
AutoCAD 2000
 90
        0
280
               0
281
               0
  0
CLASS
  1
OBJECT_PTR
  2
CAseDLPNTableRecord
  3
"ASE-LPNTableRecord"
 90
        1
280
               0
281
               0
  0
CLASS
  1
LAYOUT
  2
AcDbLayout
  3
AutoCAD 2000
 90
        0
280
               0
281
               0
  0
CLASS
  1
PLOTSETTINGS
  2
AcDbPlotSettings
  3
AutoCAD 2000
 90
        0
280
               0
281
               0
  0
CLASS
  1
ACDBDICTIONARYWDFLT
  2
AcDbDictionaryWithDefault
  3
AutoCAD 2000
 90
        0
280
               0
281
               0
  0
CLASS
  1
ACDBPLACEHOLDER
  2
AcDbPlaceHolder
  3
AutoCAD 2000
 90
        0
280
               0
281
               0
  0
CLASS
  1
VBA_PROJECT
  2
AcDbVbaProject
  3
acadvba
 90
        0
280
               0
281
               0
  0
CLASS
  1
WIPEOUT
  2
AcDbWipeout
  3
WipeOut|AutoCAD Express Tool|expresstools@autodesk.com
 90
      127
280
               0
281
               1
  0
CLASS
  1
WIPEOUTVARIABLES
  2
AcDbWipeoutVariables
  3
WipeOut|AutoCAD Express Tool|expresstools@autodesk.com
 90
        0
280
               0
281
               0
  0
CLASS
  1
RTEXT
  2
RText
  3
RText|AutoCAD Express Tool|expresstools@autodesk.com
 90
        0
280
               0
281
               1
  0
CLASS
  1
ARCALIGNEDTEXT
  2
AcDbArcAlignedText
  3
ATEXT|AutoCAD Express Tool|expresstools@autodesk.com
 90
        0
280
               0
281
               1
  0
ENDSEC
  0
SECTION
  2
TABLES
  0
TABLE
  2
VPORT
  5
7
100
AcDbSymbolTable
 70
               1
  0
VPORT
  5
15
100
AcDbSymbolTableRecord
100
AcDbViewportTableRecord
  2
*ACTIVE
 70
               0
 10
0.0
 20
0.0
 11
1.0
 21
1.0
 12
0.0
 22
0.0
 13
0.0
 23
0.0
 14
1.0
 24
1.0
 15
0.0
 25
0.0
 16
0.0
 26
0.0
 36
1.0
 17
0.0
 27
0.0
 37
0.0
 40
210.00000000000003
 41
0.688564
 42
50.0
 43
0.0
 44
0.0
 50
0.0
 51
0.0
 71
               0
 72
            2000
 73
               1
 74
               1
 75
               0
 76
               0
 77
               0
 78
               0
281
               0
 65
               0
110
0.0
120
0.0
130
0.0
111
1.0
121
0.0
131
0.0
112
0.0
122
1.0
132
0.0
345
0
346
0
 79
               0
146
0.0
  0
ENDTAB
  0
TABLE
  2
LTYPE
  5
4
100
AcDbSymbolTable
 70
              13
  0
LTYPE
  5
11
100
AcDbSymbolTableRecord
100
AcDbLinetypeTableRecord
  2
ByBlock
 70
              64
  3

 72
              65
 73
               0
 40
0.0
  0
LTYPE
  5
12
100
AcDbSymbolTableRecord
100
AcDbLinetypeTableRecord
  2
ByLayer
 70
              64
  3

 72
              65
 73
               0
 40
0.0
  0
LTYPE
  5
13
100
AcDbSymbolTableRecord
100
AcDbLinetypeTableRecord
  2
Continuous
 70
              64
  3
Solid line
 72
              65
 73
               0
 40
0.0
  0
LTYPE
  5
31
100
AcDbSymbolTableRecord
100
AcDbLinetypeTableRecord
  2
STYLE_01
 70
               0
  3

 72
              65
 73
               2
 40
0.4166412353515625
 49
0.208282470703125
 74
               0
 49
-0.2083587646484375
 74
               0
  0
LTYPE
  5
32
100
AcDbSymbolTableRecord
100
AcDbLinetypeTableRecord
  2
STYLE_02
 70
               0
  3

 72
              65
 73
               2
 40
0.694427490234375
 49
0.4860687255859375
 74
               0
 49
-0.2083587646484375
 74
               0
  0
LTYPE
  5
33
100
AcDbSymbolTableRecord
100
AcDbLinetypeTableRecord
  2
STYLE_03
 70
               0
  3

 72
              65
 73
               2
 40
1.25
 49
1.0416412353515625
 74
               0
 49
-0.2083587646484375
 74
               0
  0
LTYPE
  5
34
100
AcDbSymbolTableRecord
100
AcDbLinetypeTableRecord
  2
STYLE_04
 70
               0
  3

 72
              65
 73
               2
 40
1.5277099609375
 49
1.319427490234375
 74
               0
 49
-0.208282470703125
 74
               0
  0
LTYPE
  5
35
100
AcDbSymbolTableRecord
100
AcDbLinetypeTableRecord
  2
STYLE_05
 70
               0
  3

 72
              65
 73
               2
 40
0.208282470703125
 49
0.069427490234375
 74
               0
 49
-0.13885498046875
 74
               0
  0
LTYPE
  5
36
100
AcDbSymbolTableRecord
100
AcDbLinetypeTableRecord
  2
STYLE_06
 70
               0
  3

 72
              65
 73
               4
 40
1.0416412353515625
 49
0.625
 74
               0
 49
-0.208282470703125
 74
               0
 49
0.069427490234375
 74
               0
 49
-0.1389312744140625
 74
               0
  0
LTYPE
  5
37
100
AcDbSymbolTableRecord
100
AcDbLinetypeTableRecord
  2
STYLE_07
 70
               0
  3

 72
              65
 73
               6
 40
1.875
 49
0.625
 74
               0
 49
-0.208282470703125
 74
               0
 49
0.625
 74
               0
 49
-0.2083587646484375
 74
               0
 49
0.069427490234375
 74
               0
 49
-0.1389312744140625
 74
               0
  0
LTYPE
  5
38
100
AcDbSymbolTableRecord
100
AcDbLinetypeTableRecord
  2
STYLE_08
 70
               0
  3

 72
              65
 73
               6
 40
1.25
 49
0.625
 74
               0
 49
-0.208282470703125
 74
               0
 49
0.069427490234375
 74
               0
 49
-0.1389312744140625
 74
               0
 49
0.069427490234375
 74
               0
 49
-0.1389312744140625
 74
               0
  0
LTYPE
  5
39
100
AcDbSymbolTableRecord
100
AcDbLinetypeTableRecord
  2
STYLE_09
 70
               0
  3

 72
              65
 73
               4
 40
5.0
 49
3.75
 74
               0
 49
-0.2777862548828125
 74
               0
 49
0.694427490234375
 74
               0
 49
-0.2777862548828125
 74
               0
  0
LTYPE
  5
3A
100
AcDbSymbolTableRecord
100
AcDbLinetypeTableRecord
  2
STYLE_10
 70
               0
  3

 72
              65
 73
               6
 40
5.9375
 49
3.75
 74
               0
 49
-0.2777862548828125
 74
               0
 49
0.694427490234375
 74
               0
 49
-0.2777862548828125
 74
               0
 49
0.625
 74
               0
 49
-0.3125
 74
               0
  0
ENDTAB
  0
TABLE
  2
LAYER
  5
2
100
AcDbSymbolTable
 70
               7
  0
LAYER
  5
14
100
AcDbSymbolTableRecord
100
AcDbLayerTableRecord
  2
0
 70
               0
 62
               7
  6
Continuous
290
               1
370
              20
390
1D
  0
LAYER
  5
3B
100
AcDbSymbolTableRecord
100
AcDbLayerTableRecord
  2
êÛö╩
 70
               0
 62
               7
  6
Continuous
290
               1
370
               5
390
1D
  0
LAYER
  5
3C
100
AcDbSymbolTableRecord
100
AcDbLayerTableRecord
  2
Éíû@
 70
               0
 62
               7
  6
Continuous
290
               1
370
               5
390
1D
  0
LAYER
  5
3D
100
AcDbSymbolTableRecord
100
AcDbLayerTableRecord
  2
_0-1_Éc1
 70
               0
 62
               7
  6
Continuous
290
               1
370
              20
390
1D
  0
LAYER
  5
3E
100
AcDbSymbolTableRecord
100
AcDbLayerTableRecord
  2
_0-2_Éc2
 70
               0
 62
               7
  6
Continuous
290
               1
370
              20
390
1D
  0
LAYER
  5
3F
100
AcDbSymbolTableRecord
100
AcDbLayerTableRecord
  2
_Viewport_Crop
 70
               0
 62
              -7
  6
Continuous
290
               1
370
              -3
390
1D
  0
LAYER
  5
40
100
AcDbSymbolTableRecord
100
AcDbLayerTableRecord
  2
Defpoints
 70
               0
 62
               7
  6
Continuous
290
               0
370
              -3
390
1D
  0
ENDTAB
  0
TABLE
  2
STYLE
  5
3
100
AcDbSymbolTable
 70
               3
  0
STYLE
  5
17
100
AcDbSymbolTableRecord
100
AcDbTextStyleTableRecord
  2
Standard
 70
               0
 40
0.0
 41
1.0
 50
0.0
 71
               0
 42
0.0
  3
txt
  4
BIGFONT.SHX
  0
STYLE
  5
2F
100
AcDbSymbolTableRecord
100
AcDbTextStyleTableRecord
  2
@BatangChe
 70
               0
 40
0.0
 41
1.0
 50
0.0
 71
               0
 42
0.0
  3

  4
@BatangChe
1001
ACAD
1000
@BatangChe
1071
        0
  0
STYLE
  5
30
100
AcDbSymbolTableRecord
100
AcDbTextStyleTableRecord
  2
élér éoû¥Æ®
 70
               0
 40
0.0
 41
1.0
 50
0.0
 71
               0
 42
0.0
  3

  4
élér éoû¥Æ®
1001
ACAD
1000
élér éoû¥Æ®
1071
        0
  0
ENDTAB
  0
TABLE
  2
VIEW
  5
5
100
AcDbSymbolTable
 70
               0
  0
ENDTAB
  0
TABLE
  2
UCS
  5
6
100
AcDbSymbolTable
 70
               0
  0
ENDTAB
  0
TABLE
  2
APPID
  5
8
100
AcDbSymbolTable
 70
               1
  0
APPID
  5
16
100
AcDbSymbolTableRecord
100
AcDbRegAppTableRecord
  2
ACAD
 70
               0
  0
ENDTAB
  0
TABLE
  2
DIMSTYLE
  5
9
100
AcDbSymbolTable
 70
               2
100
AcDbDimStyleTable
 71
               0
  0
DIMSTYLE
105
18
100
AcDbSymbolTableRecord
100
AcDbDimStyleTableRecord
  2
Standard
 70
               0
  3

  4

 40
1.0
 41
0.18
 42
0.0625
 43
0.38
 44
0.18
 45
0.0
 46
0.0
 47
0.0
 48
0.0
 71
               0
 72
               0
 73
               1
 74
               1
 75
               0
 76
               0
 77
               0
 78
               0
 79
               0
140
0.18
141
0.09
142
0.0
143
25.399999999999999
144
1.0
145
0.0
146
1.0
147
0.09
148
0.0
170
               0
171
               2
172
               0
173
               0
174
               0
175
               0
176
               0
177
               0
178
               0
179
               0
271
               4
272
               4
273
               2
274
               2
275
               0
276
               0
277
               2
278
              46
279
               0
280
               0
281
               0
282
               0
283
               1
284
               0
285
               0
286
               0
288
               0
289
               3
340
17
341
0
342
0
343
0
344
0
371
              -2
372
              -2
  0
DIMSTYLE
105
45
100
AcDbSymbolTableRecord
100
AcDbDimStyleTableRecord
  2
âJâXâ^âÇ
 70
               0
  3
<>
  4
[]
 40
1.0
 41
1.9998779296874998
 42
1.5900000000000001
 43
3.0
 44
3.1800000000000002
 45
0.0
 46
1.5900000000000001
 47
0.0
 48
0.0
 71
               0
 72
               0
 73
               0
 74
               0
 75
               0
 76
               0
 77
               1
 78
              11
 79
               0
140
34.196017795138893
141
0.0
142
0.0
143
1.0
144
1.0
145
0.0
146
1.0
147
1.5874999999999999
148
0.0
170
               0
171
               2
172
               1
173
               0
174
               1
175
               0
176
               0
177
               0
178
               0
179
               0
271
               2
272
               2
273
               2
274
               2
275
               0
276
               2
277
               2
278
              46
279
               0
280
               0
281
               0
282
               0
283
               1
284
              11
285
              11
286
              11
288
               0
289
               0
340
30
341
41
342
41
343
0
344
0
371
              -2
372
              -2
  0
ENDTAB
  0
TABLE
  2
BLOCK_RECORD
  5
1
100
AcDbSymbolTable
 70
              12
  0
BLOCK_RECORD
  5
A
100
AcDbSymbolTableRecord
100
AcDbBlockTableRecord
  2
*MODEL_SPACE
340
20
  0
BLOCK_RECORD
  5
B
100
AcDbSymbolTableRecord
100
AcDbBlockTableRecord
  2
*PAPER_SPACE
340
21
  0
BLOCK_RECORD
  5
41
100
AcDbSymbolTableRecord
100
AcDbBlockTableRecord
  2
VW_FILLEDARROW
340
0
  0
BLOCK_RECORD
  5
24
100
AcDbSymbolTableRecord
100
AcDbBlockTableRecord
  2
*D1
340
0
  0
BLOCK_RECORD
  5
25
100
AcDbSymbolTableRecord
100
AcDbBlockTableRecord
  2
*D2
340
0
  0
BLOCK_RECORD
  5
26
100
AcDbSymbolTableRecord
100
AcDbBlockTableRecord
  2
*D3
340
0
  0
BLOCK_RECORD
  5
27
100
AcDbSymbolTableRecord
100
AcDbBlockTableRecord
  2
*D4
340
0
  0
BLOCK_RECORD
  5
28
100
AcDbSymbolTableRecord
100
AcDbBlockTableRecord
  2
*D5
340
0
  0
BLOCK_RECORD
  5
29
100
AcDbSymbolTableRecord
100
AcDbBlockTableRecord
  2
*D6
340
0
  0
BLOCK_RECORD
  5
2A
100
AcDbSymbolTableRecord
100
AcDbBlockTableRecord
  2
*D7
340
0
  0
BLOCK_RECORD
  5
2B
100
AcDbSymbolTableRecord
100
AcDbBlockTableRecord
  2
*D8
340
0
  0
BLOCK_RECORD
  5
2C
100
AcDbSymbolTableRecord
100
AcDbBlockTableRecord
  2
*D9
340
0
  0
BLOCK_RECORD
  5
2D
100
AcDbSymbolTableRecord
100
AcDbBlockTableRecord
  2
Callout
340
0
102
{BLKREFS
331
13E
102
}
  0
BLOCK_RECORD
  5
2E
100
AcDbSymbolTableRecord
100
AcDbBlockTableRecord
  2
Callout-1
340
0
102
{BLKREFS
331
13F
102
}
  0
ENDTAB
  0
ENDSEC
  0
SECTION
  2
BLOCKS
  0
BLOCK
  5
D
100
AcDbEntity
  8
0
390
0
100
AcDbBlockBegin
  2
*MODEL_SPACE
 70
               0
 10
0.0
 20
0.0
 30
0.0
  3
*MODEL_SPACE
  1

  0
ENDBLK
  5
E
100
AcDbEntity
  8
0
390
0
100
AcDbBlockEnd
  0
BLOCK
  5
F
100
AcDbEntity
 67
               1
  8
0
390
0
100
AcDbBlockBegin
  2
*PAPER_SPACE
 70
               0
 10
0.0
 20
0.0
 30
0.0
  3
*PAPER_SPACE
  1

  0
ENDBLK
  5
10
100
AcDbEntity
 67
               1
  8
0
390
0
100
AcDbBlockEnd
  0
BLOCK
  5
42
100
AcDbEntity
  8
0
370
              -2
390
0
  6
ByBlock
 62
               0
100
AcDbBlockBegin
  2
VW_FILLEDARROW
 70
               0
 10
0.0
 20
0.0
 30
0.0
  3
VW_FILLEDARROW
  1

  0
SOLID
  5
43
100
AcDbEntity
  8
0
370
              -2
390
0
 62
               0
100
AcDbTrace
 10
0.0
 20
0.0
 30
0.0
 11
-0.9999389648437499
 21
-0.2679328381102956
 31
0.0
 12
-0.9999389648437499
 22
0.2679328381102958
 32
0.0
 13
-0.9999389648437499
 23
0.2679328381102958
 33
0.0
  0
ENDBLK
  5
44
100
AcDbEntity
  8
0
390
0
100
AcDbBlockEnd
  0
BLOCK
  5
46
100
AcDbEntity
  8
Éíû@
390
0
100
AcDbBlockBegin
  2
*D1
 70
               1
 10
0.0
 20
0.0
 30
0.0
  3
*D1
  1

  0
LINE
  5
47
100
AcDbEntity
  8
Éíû@
370
              -2
390
0
  6
Continuous
 62
               0
100
AcDbLine
 10
-423.81841060835075
 20
650.0
 30
0.0
 11
-342.01841060835073
 21
650.0
 31
0.0
  0
LINE
  5
48
100
AcDbEntity
  8
Éíû@
370
              -2
390
0
  6
Continuous
 62
               0
100
AcDbLine
 10
-423.81841060835075
 20
-149.99999999999994
 30
0.0
 11
-342.01841060835073
 21
-149.99999999999994
 31
0.0
  0
LINE
  5
49
100
AcDbEntity
  8
Éíû@
370
              -2
390
0
  6
Continuous
 62
               0
100
AcDbLine
 10
-373.81841060835075
 20
665.89999999999998
 30
0.0
 11
-373.81841060835075
 21
650.0
 31
0.0
  0
LINE
  5
4A
100
AcDbEntity
  8
Éíû@
370
              -2
390
0
  6
Continuous
 62
               0
100
AcDbLine
 10
-373.81841060835075
 20
-149.99999999999994
 30
0.0
 11
-373.81841060835075
 21
-165.89999999999995
 31
0.0
  0
LINE
  5
4B
100
AcDbEntity
  8
Éíû@
370
              -2
390
0
  6
Continuous
 62
               0
100
AcDbLine
 10
-373.81841060835075
 20
650.0
 30
0.0
 11
-373.81841060835075
 21
-149.99999999999994
 31
0.0
  0
SOLID
  5
4C
100
AcDbEntity
  8
Éíû@
370
              -2
390
0
 62
               0
100
AcDbTrace
 10
-373.81841060835075
 20
650.0
 30
0.0
 11
-368.45975384614485
 21
630.001220703125
 31
0.0
 12
-379.17706737055664
 22
630.001220703125
 32
0.0
 13
-379.17706737055664
 23
630.001220703125
 33
0.0
  0
SOLID
  5
4D
100
AcDbEntity
  8
Éíû@
370
              -2
390
0
 62
               0
100
AcDbTrace
 10
-373.81841060835075
 20
-149.99999999999994
 30
0.0
 11
-379.17706737055664
 21
-130.00122070312494
 31
0.0
 12
-368.45975384614485
 22
-130.00122070312494
 32
0.0
 13
-368.45975384614485
 23
-130.00122070312494
 33
0.0
  0
MTEXT
  5
4E
100
AcDbEntity
  8
Éíû@
390
0
 62
               0
100
AcDbMText
 10
-349.66498395904517
 20
212.95833333333334
 30
0.0
 40
34.196017795138893
 41
0.0
 71
               1
 72
               1
  1
800
  7
élér éoû¥Æ®
 11
0.0
 21
1.0
 31
0.0
 73
               1
 44
0.8700528489132837
  0
POINT
  5
4F
100
AcDbEntity
  8
Defpoints
370
               0
390
0
 62
               0
100
AcDbPoint
 10
-458.81841060835075
 20
-149.99999999999994
 30
0.0
  0
POINT
  5
50
100
AcDbEntity
  8
Defpoints
370
               0
390
0
 62
               0
100
AcDbPoint
 10
-458.81841060835075
 20
650.0
 30
0.0
  0
POINT
  5
51
100
AcDbEntity
  8
Defpoints
370
               0
390
0
 62
               0
100
AcDbPoint
 10
-373.81841060835075
 20
650.0
 30
0.0
  0
ENDBLK
  5
52
100
AcDbEntity
  8
Éíû@
390
0
100
AcDbBlockEnd
  0
BLOCK
  5
53
100
AcDbEntity
  8
Éíû@
390
0
100
AcDbBlockBegin
  2
*D2
 70
               1
 10
0.0
 20
0.0
 30
0.0
  3
*D2
  1

  0
LINE
  5
54
100
AcDbEntity
  8
Éíû@
370
              -2
390
0
  6
Continuous
 62
               0
100
AcDbLine
 10
-922.21007863898535
 20
717.0
 30
0.0
 11
-922.21007863898535
 21
798.79999999999995
 31
0.0
  0
LINE
  5
55
100
AcDbEntity
  8
Éíû@
370
              -2
390
0
  6
Continuous
 62
               0
100
AcDbLine
 10
-962.21007863898535
 20
717.0
 30
0.0
 11
-962.21007863898535
 21
798.79999999999995
 31
0.0
  0
LINE
  5
56
100
AcDbEntity
  8
Éíû@
370
              -2
390
0
  6
Continuous
 62
               0
100
AcDbLine
 10
-962.21007863898535
 20
767.0
 30
0.0
 11
-922.21007863898535
 21
767.0
 31
0.0
  0
LINE
  5
57
100
AcDbEntity
  8
Éíû@
370
              -2
390
0
  6
Continuous
 62
               0
100
AcDbLine
 10
-922.21007863898535
 20
767.0
 30
0.0
 11
-892.21007863898535
 21
767.0
 31
0.0
  0
SOLID
  5
58
100
AcDbEntity
  8
Éíû@
370
              -2
390
0
 62
               0
100
AcDbTrace
 10
-922.21007863898535
 20
767.0
 30
0.0
 11
-902.21129934211035
 21
772.3586567622059
 31
0.0
 12
-902.21129934211035
 22
761.6413432377941
 32
0.0
 13
-902.21129934211035
 23
761.6413432377941
 33
0.0
  0
LINE
  5
59
100
AcDbEntity
  8
Éíû@
370
              -2
390
0
  6
Continuous
 62
               0
100
AcDbLine
 10
-962.21007863898535
 20
767.0
 30
0.0
 11
-992.21007863898535
 21
767.0
 31
0.0
  0
SOLID
  5
5A
100
AcDbEntity
  8
Éíû@
370
              -2
390
0
 62
               0
100
AcDbTrace
 10
-962.21007863898535
 20
767.0
 30
0.0
 11
-982.20885793586035
 21
761.6413432377941
 31
0.0
 12
-982.20885793586035
 22
772.3586567622059
 32
0.0
 13
-982.20885793586035
 23
772.3586567622059
 33
0.0
  0
MTEXT
  5
5B
100
AcDbEntity
  8
Éíû@
390
0
 62
               0
100
AcDbMText
 10
-922.21007863898535
 20
823.9854622395834
 30
0.0
 40
34.196017795138893
 41
0.0
 71
               1
 72
               1
  1
40
  7
élér éoû¥Æ®
 73
               1
 44
0.8700528489132837
  0
POINT
  5
5C
100
AcDbEntity
  8
Defpoints
370
               0
390
0
 62
               0
100
AcDbPoint
 10
-962.21007863898535
 20
692.5
 30
0.0
  0
POINT
  5
5D
100
AcDbEntity
  8
Defpoints
370
               0
390
0
 62
               0
100
AcDbPoint
 10
-922.21007863898535
 20
692.5
 30
0.0
  0
POINT
  5
5E
100
AcDbEntity
  8
Defpoints
370
               0
390
0
 62
               0
100
AcDbPoint
 10
-922.21007863898535
 20
767.0
 30
0.0
  0
ENDBLK
  5
5F
100
AcDbEntity
  8
Éíû@
390
0
100
AcDbBlockEnd
  0
BLOCK
  5
60
100
AcDbEntity
  8
Éíû@
390
0
100
AcDbBlockBegin
  2
*D3
 70
               1
 10
0.0
 20
0.0
 30
0.0
  3
*D3
  1

  0
LINE
  5
61
100
AcDbEntity
  8
Éíû@
370
              -2
390
0
  6
Continuous
 62
               0
100
AcDbLine
 10
-301.21007863898535
 20
750.0
 30
0.0
 11
-219.41007863898534
 21
750.0
 31
0.0
  0
LINE
  5
62
100
AcDbEntity
  8
Éíû@
370
              -2
390
0
  6
Continuous
 62
               0
100
AcDbLine
 10
-301.21007863898535
 20
-249.99999999999994
 30
0.0
 11
-219.41007863898534
 21
-249.99999999999994
 31
0.0
  0
LINE
  5
63
100
AcDbEntity
  8
Éíû@
370
              -2
390
0
  6
Continuous
 62
               0
100
AcDbLine
 10
-251.21007863898535
 20
765.89999999999998
 30
0.0
 11
-251.21007863898535
 21
750.0
 31
0.0
  0
LINE
  5
64
100
AcDbEntity
  8
Éíû@
370
              -2
390
0
  6
Continuous
 62
               0
100
AcDbLine
 10
-251.21007863898535
 20
-249.99999999999994
 30
0.0
 11
-251.21007863898535
 21
-265.89999999999992
 31
0.0
  0
LINE
  5
65
100
AcDbEntity
  8
Éíû@
370
              -2
390
0
  6
Continuous
 62
               0
100
AcDbLine
 10
-251.21007863898535
 20
750.0
 30
0.0
 11
-251.21007863898535
 21
-249.99999999999994
 31
0.0
  0
SOLID
  5
66
100
AcDbEntity
  8
Éíû@
370
              -2
390
0
 62
               0
100
AcDbTrace
 10
-251.21007863898535
 20
750.0
 30
0.0
 11
-245.85142187677943
 21
730.001220703125
 31
0.0
 12
-256.56873540119125
 22
730.001220703125
 32
0.0
 13
-256.56873540119125
 23
730.001220703125
 33
0.0
  0
SOLID
  5
67
100
AcDbEntity
  8
Éíû@
370
              -2
390
0
 62
               0
100
AcDbTrace
 10
-251.21007863898535
 20
-249.99999999999994
 30
0.0
 11
-256.56873540119125
 21
-230.00122070312494
 31
0.0
 12
-245.85142187677943
 22
-230.00122070312494
 32
0.0
 13
-245.85142187677943
 23
-230.00122070312494
 33
0.0
  0
MTEXT
  5
68
100
AcDbEntity
  8
Éíû@
390
0
 62
               0
100
AcDbMText
 10
-227.05665198967978
 20
200.61111111111114
 30
0.0
 40
34.196017795138893
 41
0.0
 71
               1
 72
               1
  1
1000
  7
élér éoû¥Æ®
 11
0.0
 21
1.0
 31
0.0
 73
               1
 44
0.8700528489132837
  0
POINT
  5
69
100
AcDbEntity
  8
Defpoints
370
               0
390
0
 62
               0
100
AcDbPoint
 10
-466.11841060835076
 20
-249.99999999999994
 30
0.0
  0
POINT
  5
6A
100
AcDbEntity
  8
Defpoints
370
               0
390
0
 62
               0
100
AcDbPoint
 10
-466.11841060835076
 20
750.0
 30
0.0
  0
POINT
  5
6B
100
AcDbEntity
  8
Defpoints
370
               0
390
0
 62
               0
100
AcDbPoint
 10
-251.21007863898535
 20
750.0
 30
0.0
  0
ENDBLK
  5
6C
100
AcDbEntity
  8
Éíû@
390
0
100
AcDbBlockEnd
  0
BLOCK
  5
6D
100
AcDbEntity
  8
Éíû@
390
0
100
AcDbBlockBegin
  2
*D4
 70
               1
 10
0.0
 20
0.0
 30
0.0
  3
*D4
  1

  0
LINE
  5
6E
100
AcDbEntity
  8
Éíû@
370
              -2
390
0
  6
Continuous
 62
               0
100
AcDbLine
 10
-423.81841060835131
 20
750.0
 30
0.0
 11
-342.0184106083513
 21
750.0
 31
0.0
  0
LINE
  5
6F
100
AcDbEntity
  8
Éíû@
370
              -2
390
0
  6
Continuous
 62
               0
100
AcDbLine
 10
-423.81841060835131
 20
650.0
 30
0.0
 11
-342.0184106083513
 21
650.0
 31
0.0
  0
LINE
  5
70
100
AcDbEntity
  8
Éíû@
370
              -2
390
0
  6
Continuous
 62
               0
100
AcDbLine
 10
-373.81841060835131
 20
650.0
 30
0.0
 11
-373.81841060835131
 21
750.0
 31
0.0
  0
LINE
  5
71
100
AcDbEntity
  8
Éíû@
370
              -2
390
0
  6
Continuous
 62
               0
100
AcDbLine
 10
-373.81841060835131
 20
750.0
 30
0.0
 11
-373.81841060835131
 21
780.0
 31
0.0
  0
SOLID
  5
72
100
AcDbEntity
  8
Éíû@
370
              -2
390
0
 62
               0
100
AcDbTrace
 10
-373.81841060835131
 20
750.0
 30
0.0
 11
-379.17706737055721
 21
769.998779296875
 31
0.0
 12
-368.45975384614542
 22
769.998779296875
 32
0.0
 13
-368.45975384614542
 23
769.998779296875
 33
0.0
  0
LINE
  5
73
100
AcDbEntity
  8
Éíû@
370
              -2
390
0
  6
Continuous
 62
               0
100
AcDbLine
 10
-373.81841060835131
 20
650.0
 30
0.0
 11
-373.81841060835131
 21
620.0
 31
0.0
  0
SOLID
  5
74
100
AcDbEntity
  8
Éíû@
370
              -2
390
0
 62
               0
100
AcDbTrace
 10
-373.81841060835131
 20
650.0
 30
0.0
 11
-368.45975384614542
 21
630.001220703125
 31
0.0
 12
-379.17706737055721
 22
630.001220703125
 32
0.0
 13
-379.17706737055721
 23
630.001220703125
 33
0.0
  0
MTEXT
  5
75
100
AcDbEntity
  8
Éíû@
390
0
 62
               0
100
AcDbMText
 10
-349.66498395904574
 20
662.95833333333337
 30
0.0
 40
34.196017795138893
 41
0.0
 71
               1
 72
               1
  1
100
  7
élér éoû¥Æ®
 11
0.0
 21
1.0
 31
0.0
 73
               1
 44
0.8700528489132837
  0
POINT
  5
76
100
AcDbEntity
  8
Defpoints
370
               0
390
0
 62
               0
100
AcDbPoint
 10
-458.81841060835075
 20
650.0
 30
0.0
  0
POINT
  5
77
100
AcDbEntity
  8
Defpoints
370
               0
390
0
 62
               0
100
AcDbPoint
 10
-466.11841060835076
 20
750.0
 30
0.0
  0
POINT
  5
78
100
AcDbEntity
  8
Defpoints
370
               0
390
0
 62
               0
100
AcDbPoint
 10
-373.81841060835131
 20
750.0
 30
0.0
  0
ENDBLK
  5
79
100
AcDbEntity
  8
Éíû@
390
0
100
AcDbBlockEnd
  0
BLOCK
  5
7A
100
AcDbEntity
  8
Éíû@
390
0
100
AcDbBlockBegin
  2
*D5
 70
               1
 10
0.0
 20
0.0
 30
0.0
  3
*D5
  1

  0
LINE
  5
7B
100
AcDbEntity
  8
Éíû@
370
              -2
390
0
  6
Continuous
 62
               0
100
AcDbLine
 10
-423.81841060835131
 20
-249.99999999999994
 30
0.0
 11
-342.0184106083513
 21
-249.99999999999994
 31
0.0
  0
LINE
  5
7C
100
AcDbEntity
  8
Éíû@
370
              -2
390
0
  6
Continuous
 62
               0
100
AcDbLine
 10
-423.81841060835131
 20
-149.99999999999994
 30
0.0
 11
-342.0184106083513
 21
-149.99999999999994
 31
0.0
  0
LINE
  5
7D
100
AcDbEntity
  8
Éíû@
370
              -2
390
0
  6
Continuous
 62
               0
100
AcDbLine
 10
-373.81841060835131
 20
-149.99999999999994
 30
0.0
 11
-373.81841060835131
 21
-249.99999999999994
 31
0.0
  0
LINE
  5
7E
100
AcDbEntity
  8
Éíû@
370
              -2
390
0
  6
Continuous
 62
               0
100
AcDbLine
 10
-373.81841060835131
 20
-249.99999999999994
 30
0.0
 11
-373.81841060835131
 21
-279.99999999999994
 31
0.0
  0
SOLID
  5
7F
100
AcDbEntity
  8
Éíû@
370
              -2
390
0
 62
               0
100
AcDbTrace
 10
-373.81841060835131
 20
-249.99999999999994
 30
0.0
 11
-368.45975384614542
 21
-269.99877929687494
 31
0.0
 12
-379.17706737055721
 22
-269.99877929687494
 32
0.0
 13
-379.17706737055721
 23
-269.99877929687494
 33
0.0
  0
LINE
  5
80
100
AcDbEntity
  8
Éíû@
370
              -2
390
0
  6
Continuous
 62
               0
100
AcDbLine
 10
-373.81841060835131
 20
-149.99999999999994
 30
0.0
 11
-373.81841060835131
 21
-119.99999999999994
 31
0.0
  0
SOLID
  5
81
100
AcDbEntity
  8
Éíû@
370
              -2
390
0
 62
               0
100
AcDbTrace
 10
-373.81841060835131
 20
-149.99999999999994
 30
0.0
 11
-379.17706737055721
 21
-130.00122070312494
 31
0.0
 12
-368.45975384614542
 22
-130.00122070312494
 32
0.0
 13
-368.45975384614542
 23
-130.00122070312494
 33
0.0
  0
MTEXT
  5
82
100
AcDbEntity
  8
Éíû@
390
0
 62
               0
100
AcDbMText
 10
-349.66498395904574
 20
-237.04166666666663
 30
0.0
 40
34.196017795138893
 41
0.0
 71
               1
 72
               1
  1
100
  7
élér éoû¥Æ®
 11
0.0
 21
1.0
 31
0.0
 73
               1
 44
0.8700528489132837
  0
POINT
  5
83
100
AcDbEntity
  8
Defpoints
370
               0
390
0
 62
               0
100
AcDbPoint
 10
-458.81841060835075
 20
-149.99999999999994
 30
0.0
  0
POINT
  5
84
100
AcDbEntity
  8
Defpoints
370
               0
390
0
 62
               0
100
AcDbPoint
 10
-466.11841060835076
 20
-249.99999999999994
 30
0.0
  0
POINT
  5
85
100
AcDbEntity
  8
Defpoints
370
               0
390
0
 62
               0
100
AcDbPoint
 10
-373.81841060835131
 20
-249.99999999999994
 30
0.0
  0
ENDBLK
  5
86
100
AcDbEntity
  8
Éíû@
390
0
100
AcDbBlockEnd
  0
BLOCK
  5
87
100
AcDbEntity
  8
Éíû@
390
0
100
AcDbBlockBegin
  2
*D6
 70
               1
 10
0.0
 20
0.0
 30
0.0
  3
*D6
  1

  0
LINE
  5
88
100
AcDbEntity
 67
               1
  8
Éíû@
370
              -2
390
0
  6
Continuous
 62
               0
100
AcDbLine
 10
67.224814872868834
 20
-2.0878325978954138
 30
0.0
 11
67.224814872868834
 21
-10.267832597895413
 31
0.0
  0
LINE
  5
89
100
AcDbEntity
 67
               1
  8
Éíû@
370
              -2
390
0
  6
Continuous
 62
               0
100
AcDbLine
 10
107.22481487286883
 20
-2.0878325978954146
 30
0.0
 11
107.22481487286883
 21
-10.267832597895413
 31
0.0
  0
LINE
  5
8A
100
AcDbEntity
 67
               1
  8
Éíû@
370
              -2
390
0
  6
Continuous
 62
               0
100
AcDbLine
 10
65.63481487286883
 20
-7.0878325978954138
 30
0.0
 11
67.224814872868834
 21
-7.0878325978954138
 31
0.0
  0
LINE
  5
8B
100
AcDbEntity
 67
               1
  8
Éíû@
370
              -2
390
0
  6
Continuous
 62
               0
100
AcDbLine
 10
107.22481487286883
 20
-7.0878325978954138
 30
0.0
 11
108.81481487286884
 21
-7.0878325978954138
 31
0.0
  0
LINE
  5
8C
100
AcDbEntity
 67
               1
  8
Éíû@
370
              -2
390
0
  6
Continuous
 62
               0
100
AcDbLine
 10
67.224814872868834
 20
-7.0878325978954138
 30
0.0
 11
107.22481487286883
 21
-7.0878325978954138
 31
0.0
  0
SOLID
  5
8D
100
AcDbEntity
 67
               1
  8
Éíû@
370
              -2
390
0
 62
               0
100
AcDbTrace
 10
67.224814872868834
 20
-7.0878325978954138
 30
0.0
 11
69.224692802556334
 21
-6.5519669216748229
 31
0.0
 12
69.224692802556334
 22
-7.6236982741160046
 32
0.0
 13
69.224692802556334
 23
-7.6236982741160046
 33
0.0
  0
SOLID
  5
8E
100
AcDbEntity
 67
               1
  8
Éíû@
370
              -2
390
0
 62
               0
100
AcDbTrace
 10
107.22481487286883
 20
-7.0878325978954138
 30
0.0
 11
105.22493694318133
 21
-7.6236982741160055
 31
0.0
 12
105.22493694318133
 22
-6.5519669216748229
 32
0.0
 13
105.22493694318133
 23
-6.5519669216748229
 33
0.0
  0
MTEXT
  5
8F
100
AcDbEntity
 67
               1
  8
Éíû@
390
0
 62
               0
100
AcDbMText
 10
84.755370428424385
 20
-1.3892863739370798
 30
0.0
 40
3.4196017795138891
 41
0.0
 71
               1
 72
               1
  1
40
  7
élér éoû¥Æ®
 73
               1
 44
0.8700528489132836
  0
POINT
  5
90
100
AcDbEntity
  8
Defpoints
370
               0
390
0
 62
               0
100
AcDbPoint
 10
107.22481487286883
 20
22.92043328919803
 30
0.0
  0
POINT
  5
91
100
AcDbEntity
  8
Defpoints
370
               0
390
0
 62
               0
100
AcDbPoint
 10
67.224814872868834
 20
22.92043328919803
 30
0.0
  0
POINT
  5
92
100
AcDbEntity
  8
Defpoints
370
               0
390
0
 62
               0
100
AcDbPoint
 10
67.224814872868834
 20
-7.0878325978954138
 30
0.0
  0
ENDBLK
  5
93
100
AcDbEntity
  8
Éíû@
390
0
100
AcDbBlockEnd
  0
BLOCK
  5
94
100
AcDbEntity
  8
Éíû@
390
0
100
AcDbBlockBegin
  2
*D7
 70
               1
 10
0.0
 20
0.0
 30
0.0
  3
*D7
  1

  0
LINE
  5
95
100
AcDbEntity
 67
               1
  8
Éíû@
370
              -2
390
0
  6
Continuous
 62
               0
100
AcDbLine
 10
121.91232693736383
 20
38.499711254833677
 30
0.0
 11
130.09232693736382
 21
38.499711254833677
 31
0.0
  0
LINE
  5
96
100
AcDbEntity
 67
               1
  8
Éíû@
370
              -2
390
0
  6
Continuous
 62
               0
100
AcDbLine
 10
121.91232693736383
 20
3.499711254833727
 30
0.0
 11
130.09232693736382
 21
3.499711254833727
 31
0.0
  0
LINE
  5
97
100
AcDbEntity
 67
               1
  8
Éíû@
370
              -2
390
0
  6
Continuous
 62
               0
100
AcDbLine
 10
126.91232693736383
 20
40.089711254833681
 30
0.0
 11
126.91232693736383
 21
38.499711254833677
 31
0.0
  0
LINE
  5
98
100
AcDbEntity
 67
               1
  8
Éíû@
370
              -2
390
0
  6
Continuous
 62
               0
100
AcDbLine
 10
126.91232693736383
 20
3.499711254833727
 30
0.0
 11
126.91232693736383
 21
1.9097112548337269
 31
0.0
  0
LINE
  5
99
100
AcDbEntity
 67
               1
  8
Éíû@
370
              -2
390
0
  6
Continuous
 62
               0
100
AcDbLine
 10
126.91232693736383
 20
38.499711254833677
 30
0.0
 11
126.91232693736383
 21
3.499711254833727
 31
0.0
  0
SOLID
  5
9A
100
AcDbEntity
 67
               1
  8
Éíû@
370
              -2
390
0
 62
               0
100
AcDbTrace
 10
126.91232693736383
 20
38.499711254833677
 30
0.0
 11
127.44819261358442
 21
36.499833325146177
 31
0.0
 12
126.37646126114323
 22
36.499833325146177
 32
0.0
 13
126.37646126114323
 23
36.499833325146177
 33
0.0
  0
SOLID
  5
9B
100
AcDbEntity
 67
               1
  8
Éíû@
370
              -2
390
0
 62
               0
100
AcDbTrace
 10
126.91232693736383
 20
3.499711254833727
 30
0.0
 11
126.37646126114323
 21
5.499589184521227
 31
0.0
 12
127.44819261358442
 22
5.499589184521227
 32
0.0
 13
127.44819261358442
 23
5.499589184521227
 33
0.0
  0
MTEXT
  5
9C
100
AcDbEntity
 67
               1
  8
Éíû@
390
0
 62
               0
100
AcDbMText
 10
129.32766960229441
 20
18.530266810389257
 30
0.0
 40
3.4196017795138891
 41
0.0
 71
               1
 72
               1
  1
35
  7
élér éoû¥Æ®
 11
0.0
 21
1.0
 31
0.0
 73
               1
 44
0.8700528489132836
  0
POINT
  5
9D
100
AcDbEntity
  8
Defpoints
370
               0
390
0
 62
               0
100
AcDbPoint
 10
95.255303805639514
 20
3.499711254833727
 30
0.0
  0
POINT
  5
9E
100
AcDbEntity
  8
Defpoints
370
               0
390
0
 62
               0
100
AcDbPoint
 10
95.255303805639514
 20
38.499711254833677
 30
0.0
  0
POINT
  5
9F
100
AcDbEntity
  8
Defpoints
370
               0
390
0
 62
               0
100
AcDbPoint
 10
126.91232693736383
 20
38.499711254833677
 30
0.0
  0
ENDBLK
  5
A0
100
AcDbEntity
  8
Éíû@
390
0
100
AcDbBlockEnd
  0
BLOCK
  5
A1
100
AcDbEntity
  8
Éíû@
390
0
100
AcDbBlockBegin
  2
*D8
 70
               1
 10
0.0
 20
0.0
 30
0.0
  3
*D8
  1

  0
LINE
  5
A2
100
AcDbEntity
 67
               1
  8
Éíû@
370
              -2
390
0
  6
Continuous
 62
               0
100
AcDbLine
 10
59.724814872868834
 20
-10.792577371246942
 30
0.0
 11
59.724814872868834
 21
-18.972577371246942
 31
0.0
  0
LINE
  5
A3
100
AcDbEntity
 67
               1
  8
Éíû@
370
              -2
390
0
  6
Continuous
 62
               0
100
AcDbLine
 10
114.72481487286883
 20
-10.792577371246942
 30
0.0
 11
114.72481487286883
 21
-18.972577371246942
 31
0.0
  0
LINE
  5
A4
100
AcDbEntity
 67
               1
  8
Éíû@
370
              -2
390
0
  6
Continuous
 62
               0
100
AcDbLine
 10
58.13481487286883
 20
-15.792577371246942
 30
0.0
 11
59.724814872868834
 21
-15.792577371246942
 31
0.0
  0
LINE
  5
A5
100
AcDbEntity
 67
               1
  8
Éíû@
370
              -2
390
0
  6
Continuous
 62
               0
100
AcDbLine
 10
114.72481487286883
 20
-15.792577371246942
 30
0.0
 11
116.31481487286884
 21
-15.792577371246942
 31
0.0
  0
LINE
  5
A6
100
AcDbEntity
 67
               1
  8
Éíû@
370
              -2
390
0
  6
Continuous
 62
               0
100
AcDbLine
 10
59.724814872868834
 20
-15.792577371246942
 30
0.0
 11
114.72481487286883
 21
-15.792577371246942
 31
0.0
  0
SOLID
  5
A7
100
AcDbEntity
 67
               1
  8
Éíû@
370
              -2
390
0
 62
               0
100
AcDbTrace
 10
59.724814872868834
 20
-15.792577371246942
 30
0.0
 11
61.724692802556334
 21
-15.25671169502635
 31
0.0
 12
61.724692802556334
 22
-16.328443047467534
 32
0.0
 13
61.724692802556334
 23
-16.328443047467534
 33
0.0
  0
SOLID
  5
A8
100
AcDbEntity
 67
               1
  8
Éíû@
370
              -2
390
0
 62
               0
100
AcDbTrace
 10
114.72481487286883
 20
-15.792577371246942
 30
0.0
 11
112.72493694318133
 21
-16.328443047467534
 31
0.0
 12
112.72493694318133
 22
-15.25671169502635
 32
0.0
 13
112.72493694318133
 23
-15.25671169502635
 33
0.0
  0
MTEXT
  5
A9
100
AcDbEntity
 67
               1
  8
Éíû@
390
0
 62
               0
100
AcDbMText
 10
84.755370428424385
 20
-10.094031147288609
 30
0.0
 40
3.4196017795138891
 41
0.0
 71
               1
 72
               1
  1
55
  7
élér éoû¥Æ®
 73
               1
 44
0.8700528489132836
  0
POINT
  5
AA
100
AcDbEntity
  8
Defpoints
370
               0
390
0
 62
               0
100
AcDbPoint
 10
114.72481487286883
 20
20.999711254833706
 30
0.0
  0
POINT
  5
AB
100
AcDbEntity
  8
Defpoints
370
               0
390
0
 62
               0
100
AcDbPoint
 10
59.724814872868834
 20
20.999711254833706
 30
0.0
  0
POINT
  5
AC
100
AcDbEntity
  8
Defpoints
370
               0
390
0
 62
               0
100
AcDbPoint
 10
59.724814872868834
 20
-15.792577371246942
 30
0.0
  0
ENDBLK
  5
AD
100
AcDbEntity
  8
Éíû@
390
0
100
AcDbBlockEnd
  0
BLOCK
  5
AE
100
AcDbEntity
  8
Éíû@
390
0
100
AcDbBlockBegin
  2
*D9
 70
               1
 10
0.0
 20
0.0
 30
0.0
  3
*D9
  1

  0
LINE
  5
AF
100
AcDbEntity
 67
               1
  8
Éíû@
370
              -2
390
0
  6
Continuous
 62
               0
100
AcDbLine
 10
121.8279744378864
 20
54.713962066956242
 30
0.0
 11
130.00797443788639
 21
54.713962066956242
 31
0.0
  0
LINE
  5
B0
100
AcDbEntity
 67
               1
  8
Éíû@
370
              -2
390
0
  6
Continuous
 62
               0
100
AcDbLine
 10
121.8279744378864
 20
50.213962066956171
 30
0.0
 11
130.00797443788639
 21
50.213962066956171
 31
0.0
  0
LINE
  5
B1
100
AcDbEntity
 67
               1
  8
Éíû@
370
              -2
390
0
  6
Continuous
 62
               0
100
AcDbLine
 10
126.8279744378864
 20
50.213962066956171
 30
0.0
 11
126.8279744378864
 21
54.713962066956242
 31
0.0
  0
LINE
  5
B2
100
AcDbEntity
 67
               1
  8
Éíû@
370
              -2
390
0
  6
Continuous
 62
               0
100
AcDbLine
 10
126.8279744378864
 20
54.713962066956242
 30
0.0
 11
126.8279744378864
 21
57.713962066956242
 31
0.0
  0
SOLID
  5
B3
100
AcDbEntity
 67
               1
  8
Éíû@
370
              -2
390
0
 62
               0
100
AcDbTrace
 10
126.8279744378864
 20
54.713962066956242
 30
0.0
 11
126.2921087616658
 21
56.713839996643742
 31
0.0
 12
127.36384011410699
 22
56.713839996643742
 32
0.0
 13
127.36384011410699
 23
56.713839996643742
 33
0.0
  0
LINE
  5
B4
100
AcDbEntity
 67
               1
  8
Éíû@
370
              -2
390
0
  6
Continuous
 62
               0
100
AcDbLine
 10
126.8279744378864
 20
50.213962066956171
 30
0.0
 11
126.8279744378864
 21
47.213962066956171
 31
0.0
  0
SOLID
  5
B5
100
AcDbEntity
 67
               1
  8
Éíû@
370
              -2
390
0
 62
               0
100
AcDbTrace
 10
126.8279744378864
 20
50.213962066956171
 30
0.0
 11
127.36384011410699
 21
48.214084137268671
 31
0.0
 12
126.2921087616658
 22
48.214084137268671
 32
0.0
 13
126.2921087616658
 23
48.214084137268671
 33
0.0
  0
MTEXT
  5
B6
100
AcDbEntity
 67
               1
  8
Éíû@
390
0
 62
               0
100
AcDbMText
 10
129.24331710281697
 20
54.713962066956242
 30
0.0
 40
3.4196017795138891
 41
0.0
 71
               1
 72
               1
  1
4.5
  7
élér éoû¥Æ®
 11
0.0
 21
1.0
 31
0.0
 73
               1
 44
0.8700528489132836
  0
POINT
  5
B7
100
AcDbEntity
  8
Defpoints
370
               0
390
0
 62
               0
100
AcDbPoint
 10
108.48576677335562
 20
50.213962066956171
 30
0.0
  0
POINT
  5
B8
100
AcDbEntity
  8
Defpoints
370
               0
390
0
 62
               0
100
AcDbPoint
 10
108.48576677335562
 20
54.713962066956242
 30
0.0
  0
POINT
  5
B9
100
AcDbEntity
  8
Defpoints
370
               0
390
0
 62
               0
100
AcDbPoint
 10
126.8279744378864
 20
54.713962066956242
 30
0.0
  0
ENDBLK
  5
BA
100
AcDbEntity
  8
Éíû@
390
0
100
AcDbBlockEnd
  0
BLOCK
  5
BB
100
AcDbEntity
  8
Éíû@
390
0
100
AcDbBlockBegin
  2
Callout
 70
               2
 10
0.0
 20
0.0
 30
0.0
  3
Callout
  1

  0
LINE
  5
BC
100
AcDbEntity
  8
Éíû@
370
               5
390
0
  6
Continuous
 62
               7
100
AcDbLine
 10
-5.499261313376465
 20
-3.174999999621996
 30
0.0
 11
0.0
 21
0.0
 31
0.0
  0
LINE
  5
BD
100
AcDbEntity
  8
Éíû@
370
               5
390
0
  6
Continuous
 62
               7
100
AcDbLine
 10
0.0
 20
0.0
 30
0.0
 11
26.755149995049361
 21
0.0
 31
0.0
  0
LINE
  5
BE
100
AcDbEntity
  8
Éíû@
370
              25
390
0
  6
Continuous
 62
               7
100
AcDbLine
 10
26.437649995049362
 20
0.0
 30
0.0
 11
26.755149995049361
 21
0.0
 31
0.0
  0
SOLID
  5
BF
100
AcDbEntity
  8
Éíû@
370
              25
390
0
 62
               7
100
AcDbTrace
 10
26.755149995049361
 20
0.0
 30
0.0
 11
23.580149995049361
 21
-0.8507386859688153
 31
0.0
 12
23.580149995049361
 22
0.8507386859688145
 32
0.0
 13
23.580149995049361
 23
0.8507386859688145
 33
0.0
  0
MTEXT
  5
C0
100
AcDbEntity
  8
Éíû@
390
0
 62
               7
100
AcDbMText
 10
-7.3511736995142565
 20
-2.3486436556652261
 30
0.0
 40
3.4196017795138891
 41
7.6623333333333328
 71
               3
 72
               1
  1
9âË
  7
élér éoû¥Æ®
 11
0.8660254037844387
 21
0.4999999999999998
 31
0.0
 73
               1
 44
0.8700528489132836
  0
ENDBLK
  5
C1
100
AcDbEntity
  8
Éíû@
390
0
100
AcDbBlockEnd
  0
BLOCK
  5
C2
100
AcDbEntity
  8
Éíû@
390
0
100
AcDbBlockBegin
  2
Callout-1
 70
               2
 10
0.0
 20
0.0
 30
0.0
  3
Callout-1
  1

  0
LINE
  5
C3
100
AcDbEntity
  8
Éíû@
370
               5
390
0
  6
Continuous
 62
               7
100
AcDbLine
 10
-2.0658327434976131
 20
6.0045678508859508
 30
0.0
 11
0.0
 21
0.0
 31
0.0
  0
LINE
  5
C4
100
AcDbEntity
  8
Éíû@
370
               5
390
0
  6
Continuous
 62
               7
100
AcDbLine
 10
0.0
 20
0.0
 30
0.0
 11
22.20778743
 21
0.0
 31
0.0
  0
LINE
  5
C5
100
AcDbEntity
  8
Éíû@
370
              25
390
0
  6
Continuous
 62
               7
100
AcDbLine
 10
21.890287430000001
 20
0.0
 30
0.0
 11
22.20778743
 21
0.0
 31
0.0
  0
SOLID
  5
C6
100
AcDbEntity
  8
Éíû@
370
              25
390
0
 62
               7
100
AcDbTrace
 10
22.20778743
 20
0.0
 30
0.0
 11
19.032787429999999
 21
-0.8507386859688153
 31
0.0
 12
19.032787429999999
 22
0.8507386859688145
 32
0.0
 13
19.032787429999999
 23
0.8507386859688145
 33
0.0
  0
MTEXT
  5
C7
100
AcDbEntity
  8
Éíû@
390
0
 62
               7
100
AcDbMText
 10
-0.9008757105843187
 20
7.6644833320457648
 30
0.0
 40
3.4196017795138891
 41
40.209611864725751
 71
               3
 72
               1
  1
4.5âË-7âËÆiòté½îè
  7
élér éoû¥Æ®
 11
0.3253279911019866
 21
-0.9456012363599922
 31
0.0
 73
               1
 44
0.8700528489132836
  0
ENDBLK
  5
C8
100
AcDbEntity
  8
Éíû@
390
0
100
AcDbBlockEnd
  0
ENDSEC
  0
SECTION
  2
ENTITIES
  0
VIEWPORT
  5
118
100
AcDbEntity
 67
               1
  8
0
390
0
100
AcDbViewport
 10
0.0
 20
0.0
 30
0.0
 40
311.85000000000002
 41
220.50000000000003
 68
               1
 69
               1
 12
0.0
 22
0.0
 13
0.0
 23
0.0
 14
0.5
 24
0.5
 15
0.5
 25
0.5
 16
0.0
 26
0.0
 36
1.0
 17
0.0
 27
0.0
 37
0.0
 42
50.0
 43
0.0
 44
0.0
 45
231.00000000000003
 50
0.0
 51
0.0
 72
            2000
 90
    32800
340
0
  1

281
               0
 71
               0
 74
               1
110
0.0
120
0.0
130
0.0
111
1.0
121
0.0
131
0.0
112
0.0
122
1.0
132
0.0
345
0
346
0
 79
               0
146
0.0
  0
SPLINE
  5
119
100
AcDbEntity
 67
               1
  8
êÛö╩
370
               5
390
0
  6
Continuous
 62
               7
100
AcDbSpline
210
0.0
220
0.0
230
1.0
 70
               9
 71
               2
 72
              17
 73
              14
 74
               0
 42
0.000001
 43
0.000001
 40
0.0
 40
0.0
 40
0.0
 40
1.0
 40
2.0
 40
3.0
 40
4.0
 40
5.0
 40
6.0
 40
7.0
 40
8.0
 40
9.0
 40
10.0
 40
11.0
 40
12.0
 40
12.0
 40
12.0
 10
73.474814872868834
 20
36.155155821061356
 30
0.0
 10
79.856212081012956
 20
38.499711254833677
 30
0.0
 10
94.593417664724711
 20
38.499711254833677
 30
0.0
 10
107.35621208101296
 20
33.810600387289035
 30
0.0
 10
114.72481487286883
 20
25.68882212237834
 30
0.0
 10
114.72481487286883
 20
16.310600387289064
 30
0.0
 10
107.35621208101296
 20
8.1888221223783688
 30
0.0
 10
94.593417664724711
 20
3.499711254833727
 30
0.0
 10
79.856212081012956
 20
3.499711254833727
 30
0.0
 10
67.093417664724711
 20
8.1888221223783688
 30
0.0
 10
59.724814872868834
 20
16.310600387289064
 30
0.0
 10
59.724814872868834
 20
25.68882212237834
 30
0.0
 10
67.093417664724711
 20
33.810600387289035
 30
0.0
 10
73.474814872868834
 20
36.155155821061356
 30
0.0
  0
CIRCLE
  5
11A
100
AcDbEntity
 67
               1
  8
êÛö╩
370
               5
390
0
  6
Continuous
 62
               7
100
AcDbCircle
 10
67.224814872868834
 20
20.999711254833734
 30
0.0
 40
2.25
  0
CIRCLE
  5
11B
100
AcDbEntity
 67
               1
  8
êÛö╩
370
               5
390
0
  6
Continuous
 62
               7
100
AcDbCircle
 10
107.22481487286883
 20
20.999711254833734
 30
0.0
 40
2.25
  0
CIRCLE
  5
11C
100
AcDbEntity
 67
               1
  8
êÛö╩
370
               5
390
0
  6
Continuous
 62
               7
100
AcDbCircle
 10
87.224814872868834
 20
20.999711254833734
 30
0.0
 40
4.5
  0
CIRCLE
  5
11D
100
AcDbEntity
 67
               1
  8
êÛö╩
370
               5
390
0
  6
Continuous
 62
               7
100
AcDbCircle
 10
67.224814872868834
 20
20.999711254833734
 30
0.0
 40
3.5
  0
CIRCLE
  5
11E
100
AcDbEntity
 67
               1
  8
êÛö╩
370
               5
390
0
  6
Continuous
 62
               7
100
AcDbCircle
 10
107.22481487286883
 20
20.999711254833734
 30
0.0
 40
3.5
  0
POLYLINE
  5
120
102
{ACAD_REACTORS
330
11F
102
}
100
AcDbEntity
 67
               1
  8
_Viewport_Crop
370
               5
390
0
  6
Continuous
 62
               7
100
AcDb2dPolyline
 66
               1
 10
0.0
 20
0.0
 30
0.0
 70
               1
 75
               5
  0
VERTEX
  5
121
100
AcDbEntity
 67
               1
  8
Éíû@
370
               5
390
0
  6
Continuous
 62
               7
100
AcDbVertex
100
AcDb2dVertex
 10
-114.66151964235154
 20
84.726388888888891
 30
0.0
  0
VERTEX
  5
122
100
AcDbEntity
 67
               1
  8
Éíû@
370
               5
390
0
  6
Continuous
 62
               7
100
AcDbVertex
100
AcDb2dVertex
 10
108.80947336416273
 20
84.726388888888891
 30
0.0
  0
VERTEX
  5
123
100
AcDbEntity
 67
               1
  8
Éíû@
370
               5
390
0
  6
Continuous
 62
               7
100
AcDbVertex
100
AcDb2dVertex
 10
108.80947336416273
 20
-94.742102915751104
 30
0.0
  0
VERTEX
  5
124
100
AcDbEntity
 67
               1
  8
Éíû@
370
               5
390
0
  6
Continuous
 62
               7
100
AcDbVertex
100
AcDb2dVertex
 10
-114.66151964235154
 20
-94.742102915751104
 30
0.0
  0
SEQEND
  5
125
100
AcDbEntity
 67
               1
  8
Éíû@
370
               5
390
0
  6
Continuous
 62
               7
  0
VIEWPORT
  5
11F
100
AcDbEntity
 67
               1
  8
Éíû@
390
0
100
AcDbViewport
 10
-2.9260231390944043
 20
-5.0078570134311065
 30
0.0
 40
223.47099300651428
 41
179.46849180464
 68
               2
 69
               2
 12
-29.260231390944043
 22
-50.078570134311065
 13
0.0
 23
0.0
 14
0.5
 24
0.5
 15
0.5
 25
0.5
 16
0.0
 26
0.0
 36
1.0
 17
0.0
 27
0.0
 37
0.0
 42
50.0
 43
0.0
 44
0.0
 45
1794.6849180464001
 50
0.0
 51
0.0
 72
             100
 90
   114720
340
120
  1

281
               0
 71
               0
 74
               1
110
0.0
120
0.0
130
0.0
111
1.0
121
0.0
131
0.0
112
0.0
122
1.0
132
0.0
345
0
346
0
 79
               0
146
0.0
  0
POLYLINE
  5
127
100
AcDbEntity
 67
               1
  8
Éíû@
370
               5
390
0
  6
Continuous
 62
               7
100
AcDb2dPolyline
 66
               1
 10
0.0
 20
0.0
 30
0.0
 70
               1
 75
               5
  0
VERTEX
  5
128
100
AcDbEntity
 67
               1
  8
Éíû@
370
               5
390
0
  6
Continuous
 62
               7
100
AcDbVertex
100
AcDb2dVertex
 10
3.8000795887824665
 20
104.51550508215597
 30
0.0
  0
VERTEX
  5
129
100
AcDbEntity
 67
               1
  8
Éíû@
370
               5
390
0
  6
Continuous
 62
               7
100
AcDbVertex
100
AcDb2dVertex
 10
148.31558467093845
 20
104.51550508215597
 30
0.0
  0
VERTEX
  5
12A
100
AcDbEntity
 67
               1
  8
Éíû@
370
               5
390
0
  6
Continuous
 62
               7
100
AcDbVertex
100
AcDb2dVertex
 10
148.31558467093845
 20
-40.000000000000014
 30
0.0
  0
VERTEX
  5
12B
100
AcDbEntity
 67
               1
  8
Éíû@
370
               5
390
0
  6
Continuous
 62
               7
100
AcDbVertex
100
AcDb2dVertex
 10
3.8000795887824665
 20
-40.000000000000014
 30
0.0
  0
SEQEND
  5
12C
100
AcDbEntity
 67
               1
  8
Éíû@
370
               5
390
0
  6
Continuous
 62
               7
  0
DIMENSION
  5
12E
100
AcDbEntity
 67
               1
  8
Éíû@
370
               5
390
0
  6
Continuous
 62
               7
100
AcDbDimension
  2
*D6
 10
67.224814872868834
 20
-7.0878325978954138
 30
0.0
 11
87.224814872868834
 21
-7.0878325978954138
 31
0.0
 71
               5
 72
               1
 41
1.0
 42
0.0
  3
âJâXâ^âÇ
100
AcDbAlignedDimension
 13
107.22481487286883
 23
22.92043328919803
 33
0.0
 14
67.224814872868834
 24
22.92043328919803
 34
0.0
100
AcDbRotatedDimension
1001
ACAD
1000
DSTYLE
1002
{
1070
             279
1070
               2
1070
             340
1005
30
1070
             140
1040
3.4196017795138891
1002
}
  0
DIMENSION
  5
12F
100
AcDbEntity
 67
               1
  8
Éíû@
370
               5
390
0
  6
Continuous
 62
               7
100
AcDbDimension
  2
*D7
 10
126.91232693736383
 20
38.499711254833677
 30
0.0
 11
126.91232693736383
 21
20.999711254833702
 31
0.0
 71
               5
 72
               1
 41
1.0
 42
0.0
  3
âJâXâ^âÇ
100
AcDbAlignedDimension
 13
95.255303805639514
 23
3.499711254833727
 33
0.0
 14
95.255303805639514
 24
38.499711254833677
 34
0.0
 50
90.0
100
AcDbRotatedDimension
1001
ACAD
1000
DSTYLE
1002
{
1070
             279
1070
               2
1070
             340
1005
30
1070
             140
1040
3.4196017795138891
1002
}
  0
DIMENSION
  5
130
100
AcDbEntity
 67
               1
  8
Éíû@
370
               5
390
0
  6
Continuous
 62
               7
100
AcDbDimension
  2
*D8
 10
59.724814872868834
 20
-15.792577371246942
 30
0.0
 11
87.224814872868834
 21
-15.792577371246942
 31
0.0
 71
               5
 72
               1
 41
1.0
 42
0.0
  3
âJâXâ^âÇ
100
AcDbAlignedDimension
 13
114.72481487286883
 23
20.999711254833706
 33
0.0
 14
59.724814872868834
 24
20.999711254833706
 34
0.0
100
AcDbRotatedDimension
1001
ACAD
1000
DSTYLE
1002
{
1070
             279
1070
               2
1070
             340
1005
30
1070
             140
1040
3.4196017795138891
1002
}
  0
LINE
  5
131
100
AcDbEntity
 67
               1
  8
Éíû@
370
               5
390
0
  6
Continuous
 62
               7
100
AcDbLine
 10
62.170639577775894
 20
54.713962066956242
 30
0.0
 11
113.17063957777586
 21
54.713962066956242
 31
0.0
  0
POLYLINE
  5
132
100
AcDbEntity
 67
               1
  8
Éíû@
370
               5
390
0
  6
Continuous
 62
               7
100
AcDb2dPolyline
 66
               1
 10
0.0
 20
0.0
 30
0.0
 75
               5
  0
VERTEX
  5
133
100
AcDbEntity
 67
               1
  8
Éíû@
370
               5
390
0
  6
Continuous
 62
               7
100
AcDbVertex
100
AcDb2dVertex
 10
115.17063957777584
 20
53.713962066956249
 30
0.0
  0
VERTEX
  5
134
100
AcDbEntity
 67
               1
  8
Éíû@
370
               5
390
0
  6
Continuous
 62
               7
100
AcDbVertex
100
AcDb2dVertex
 10
115.17063957777584
 20
50.213962066956171
 30
0.0
  0
VERTEX
  5
135
100
AcDbEntity
 67
               1
  8
Éíû@
370
               5
390
0
  6
Continuous
 62
               7
100
AcDbVertex
100
AcDb2dVertex
 10
60.170639577775894
 20
50.213962066956171
 30
0.0
  0
VERTEX
  5
136
100
AcDbEntity
 67
               1
  8
Éíû@
370
               5
390
0
  6
Continuous
 62
               7
100
AcDbVertex
100
AcDb2dVertex
 10
60.170639577775894
 20
53.713962066956242
 30
0.0
  0
SEQEND
  5
137
100
AcDbEntity
 67
               1
  8
Éíû@
370
               5
390
0
  6
Continuous
 62
               7
  0
LINE
  5
139
100
AcDbEntity
 67
               1
  8
Éíû@
370
               5
390
0
  6
Continuous
 62
               7
100
AcDbLine
 10
62.170639577775894
 20
54.713962066956242
 30
0.0
 11
60.170639577775894
 21
53.713962066956242
 31
0.0
  0
LINE
  5
13A
100
AcDbEntity
 67
               1
  8
Éíû@
370
               5
390
0
  6
Continuous
 62
               7
100
AcDbLine
 10
83.170639577775844
 20
54.713962066956242
 30
0.0
 11
83.170639577775844
 21
90.213962066956185
 31
0.0
  0
LINE
  5
13B
100
AcDbEntity
 67
               1
  8
Éíû@
370
               5
390
0
  6
Continuous
 62
               7
100
AcDbLine
 10
92.170639577775844
 20
54.713962066956242
 30
0.0
 11
92.170639577775844
 21
90.213962066956114
 31
0.0
  0
ARC
  5
13C
100
AcDbEntity
 67
               1
  8
Éíû@
370
               5
390
0
  6
Continuous
 62
               7
100
AcDbCircle
 10
87.670639577775844
 20
102.03297360596966
 30
0.0
 40
12.700000000000017
100
AcDbArc
 50
212.11140253562579
 51
327.88859746437419
  0
DIMENSION
  5
13D
100
AcDbEntity
 67
               1
  8
Éíû@
370
               5
390
0
  6
Continuous
 62
               7
100
AcDbDimension
  2
*D9
 10
126.8279744378864
 20
54.713962066956242
 30
0.0
 11
126.8279744378864
 21
52.463962066956206
 31
0.0
 71
               5
 72
               1
 41
1.0
 42
0.0
  3
âJâXâ^âÇ
100
AcDbAlignedDimension
 13
108.48576677335562
 23
50.213962066956171
 33
0.0
 14
108.48576677335562
 24
54.713962066956242
 34
0.0
 50
90.0
100
AcDbRotatedDimension
1001
ACAD
1000
DSTYLE
1002
{
1070
             279
1070
               2
1070
             340
1005
30
1070
             140
1040
3.4196017795138891
1070
             174
1070
               0
1002
}
  0
INSERT
  5
13E
100
AcDbEntity
 67
               1
  8
Éíû@
390
0
 62
               7
100
AcDbBlockReference
  2
Callout
 10
60.0
 20
80.0
 30
0.0
 50
-29.999999999999993
  0
INSERT
  5
13F
100
AcDbEntity
 67
               1
  8
Éíû@
390
0
 62
               7
100
AcDbBlockReference
  2
Callout-1
 10
60.0
 20
0.0
 30
0.0
 50
71.014552590992878
  0
MTEXT
  5
140
100
AcDbEntity
 67
               1
  8
Éíû@
390
0
 62
               7
100
AcDbMText
 10
67.718853953285034
 20
-30.866079682380864
 30
0.0
 40
4.3966308593749996
 41
0.0
 71
               1
 72
               1
  1
ì└ïÓAÅ┌ìÎÉ}
  7
élér éoû¥Æ®
 73
               1
 44
0.8700528489132836
  0
LINE
  5
141
100
AcDbEntity
 67
               1
  8
êÛö╩
370
               5
390
0
  6
STYLE_01
 62
               7
100
AcDbLine
 10
64.750000000000014
 20
50.213962066956242
 30
0.0
 11
64.750000000000014
 21
51.809973341164167
 31
0.0
  0
LINE
  5
142
100
AcDbEntity
 67
               1
  8
êÛö╩
370
               5
390
0
  6
STYLE_01
 62
               7
100
AcDbLine
 10
69.250000000000014
 20
50.213962066956242
 30
0.0
 11
69.250000000000014
 21
51.809973341164167
 31
0.0
  0
LINE
  5
143
100
AcDbEntity
 67
               1
  8
êÛö╩
370
               5
390
0
  6
STYLE_01
 62
               7
100
AcDbLine
 10
70.500000000000014
 20
54.713962066956242
 30
0.0
 11
70.500000000000014
 21
51.809973341164167
 31
0.0
  0
LINE
  5
144
100
AcDbEntity
 67
               1
  8
êÛö╩
370
               5
390
0
  6
STYLE_01
 62
               7
100
AcDbLine
 10
63.500000000000014
 20
54.713962066956242
 30
0.0
 11
63.500000000000014
 21
51.809973341164167
 31
0.0
  0
LINE
  5
145
100
AcDbEntity
 67
               1
  8
êÛö╩
370
               5
390
0
  6
STYLE_01
 62
               7
100
AcDbLine
 10
63.500000000000014
 20
51.809973341164167
 30
0.0
 11
64.750000000000014
 21
51.809973341164167
 31
0.0
  0
LINE
  5
146
100
AcDbEntity
 67
               1
  8
êÛö╩
370
               5
390
0
  6
STYLE_01
 62
               7
100
AcDbLine
 10
70.500000000000014
 20
51.809973341164167
 30
0.0
 11
69.250000000000014
 21
51.809973341164167
 31
0.0
  0
LINE
  5
147
100
AcDbEntity
 67
               1
  8
Éíû@
370
               5
390
0
  6
Continuous
 62
               7
100
AcDbLine
 10
63.500000000000014
 20
54.713962066956242
 30
0.0
 11
70.500000000000014
 21
54.713962066956242
 31
0.0
  0
LINE
  5
148
100
AcDbEntity
 67
               1
  8
Éíû@
370
               5
390
0
  6
Continuous
 62
               7
100
AcDbLine
 10
113.17063957777586
 20
54.713962066956242
 30
0.0
 11
115.17063957777586
 21
53.713962066956242
 31
0.0
  0
LINE
  5
149
100
AcDbEntity
 67
               1
  8
êÛö╩
370
               5
390
0
  6
STYLE_01
 62
               7
100
AcDbLine
 10
110.59127915555173
 20
50.213962066956242
 30
0.0
 11
110.59127915555173
 21
51.809973341164167
 31
0.0
  0
LINE
  5
14A
100
AcDbEntity
 67
               1
  8
êÛö╩
370
               5
390
0
  6
STYLE_01
 62
               7
100
AcDbLine
 10
106.09127915555173
 20
50.213962066956242
 30
0.0
 11
106.09127915555173
 21
51.809973341164167
 31
0.0
  0
LINE
  5
14B
100
AcDbEntity
 67
               1
  8
êÛö╩
370
               5
390
0
  6
STYLE_01
 62
               7
100
AcDbLine
 10
104.84127915555173
 20
54.713962066956242
 30
0.0
 11
104.84127915555173
 21
51.809973341164167
 31
0.0
  0
LINE
  5
14C
100
AcDbEntity
 67
               1
  8
êÛö╩
370
               5
390
0
  6
STYLE_01
 62
               7
100
AcDbLine
 10
111.84127915555173
 20
54.713962066956242
 30
0.0
 11
111.84127915555173
 21
51.809973341164167
 31
0.0
  0
LINE
  5
14D
100
AcDbEntity
 67
               1
  8
êÛö╩
370
               5
390
0
  6
STYLE_01
 62
               7
100
AcDbLine
 10
111.84127915555173
 20
51.809973341164167
 30
0.0
 11
110.59127915555173
 21
51.809973341164167
 31
0.0
  0
LINE
  5
14E
100
AcDbEntity
 67
               1
  8
êÛö╩
370
               5
390
0
  6
STYLE_01
 62
               7
100
AcDbLine
 10
104.84127915555173
 20
51.809973341164167
 30
0.0
 11
106.09127915555173
 21
51.809973341164167
 31
0.0
  0
LINE
  5
14F
100
AcDbEntity
 67
               1
  8
Éíû@
370
               5
390
0
  6
Continuous
 62
               7
100
AcDbLine
 10
111.84127915555173
 20
54.713962066956242
 30
0.0
 11
104.84127915555173
 21
54.713962066956242
 31
0.0
  0
LINE
  5
150
100
AcDbEntity
 67
               1
  8
Éíû@
370
               5
390
0
  6
STYLE_01
 62
               7
100
AcDbLine
 10
92.170639577775873
 20
54.713962066956242
 30
0.0
 11
92.170639577775873
 21
50.213962066956171
 31
0.0
  0
LINE
  5
151
100
AcDbEntity
 67
               1
  8
Éíû@
370
               5
390
0
  6
STYLE_01
 62
               7
100
AcDbLine
 10
83.170639577775873
 20
54.713962066956242
 30
0.0
 11
83.170639577775873
 21
50.213962066956171
 31
0.0
  0
SPLINE
  5
152
100
AcDbEntity
 67
               1
  8
êÛö╩
370
               5
390
0
  6
Continuous
 62
               7
100
AcDbSpline
210
0.0
220
0.0
230
1.0
 70
               9
 71
               2
 72
              17
 73
              14
 74
               0
 42
0.000001
 43
0.000001
 40
0.0
 40
0.0
 40
0.0
 40
1.0
 40
2.0
 40
3.0
 40
4.0
 40
5.0
 40
6.0
 40
7.0
 40
8.0
 40
9.0
 40
10.0
 40
11.0
 40
12.0
 40
12.0
 40
12.0
 10
74.474814872868834
 20
34.423105013492474
 30
0.0
 10
80.392110465875206
 20
36.499711254833677
 30
0.0
 10
94.057519279862461
 20
36.499711254833677
 30
0.0
 10
105.89211046587521
 20
32.346498772151278
 30
0.0
 10
112.72481487286883
 20
25.152923737516097
 30
0.0
 10
112.72481487286883
 20
16.846498772151307
 30
0.0
 10
105.89211046587521
 20
9.6529237375161223
 30
0.0
 10
94.057519279862461
 20
5.499711254833727
 30
0.0
 10
80.392110465875206
 20
5.499711254833727
 30
0.0
 10
68.557519279862461
 20
9.6529237375161223
 30
0.0
 10
61.724814872868834
 20
16.846498772151307
 30
0.0
 10
61.724814872868834
 20
25.152923737516097
 30
0.0
 10
68.557519279862461
 20
32.346498772151278
 30
0.0
 10
74.474814872868834
 20
34.423105013492474
 30
0.0
  0
POINT
  5
C9
100
AcDbEntity
  8
Éíû@
370
               5
390
0
  6
Continuous
 62
               7
100
AcDbPoint
 10
-478.81841060835069
 20
650.0
 30
0.0
  0
SPLINE
  5
CA
100
AcDbEntity
  8
êÛö╩
370
               5
390
0
  6
Continuous
 62
               7
100
AcDbSpline
210
0.0
220
0.0
230
1.0
 70
               9
 71
               2
 72
              17
 73
              14
 74
               0
 42
0.000001
 43
0.000001
 40
0.0
 40
0.0
 40
0.0
 40
1.0
 40
2.0
 40
3.0
 40
4.0
 40
5.0
 40
6.0
 40
7.0
 40
8.0
 40
9.0
 40
10.0
 40
11.0
 40
12.0
 40
12.0
 40
12.0
 10
-492.56841060835075
 20
665.15544456622774
 30
0.0
 10
-486.18701340020664
 20
667.5
 30
0.0
 10
-471.44980781649485
 20
667.5
 30
0.0
 10
-458.68701340020664
 20
662.81088913245537
 30
0.0
 10
-451.31841060835075
 20
654.68911086754463
 30
0.0
 10
-451.31841060835075
 20
645.31088913245537
 30
0.0
 10
-458.68701340020664
 20
637.18911086754463
 30
0.0
 10
-471.44980781649485
 20
632.5
 30
0.0
 10
-486.18701340020664
 20
632.5
 30
0.0
 10
-498.94980781649485
 20
637.18911086754463
 30
0.0
 10
-506.31841060835075
 20
645.31088913245537
 30
0.0
 10
-506.31841060835075
 20
654.68911086754463
 30
0.0
 10
-498.94980781649485
 20
662.81088913245537
 30
0.0
 10
-492.56841060835075
 20
665.15544456622774
 30
0.0
  0
CIRCLE
  5
CB
100
AcDbEntity
  8
êÛö╩
370
               5
390
0
  6
Continuous
 62
               7
100
AcDbCircle
 10
-498.81841060835075
 20
650.0
 30
0.0
 40
2.25
  0
CIRCLE
  5
CC
100
AcDbEntity
  8
êÛö╩
370
               5
390
0
  6
Continuous
 62
               7
100
AcDbCircle
 10
-458.81841060835075
 20
650.0
 30
0.0
 40
2.25
  0
CIRCLE
  5
CD
100
AcDbEntity
  8
êÛö╩
370
               5
390
0
  6
Continuous
 62
               7
100
AcDbCircle
 10
-478.81841060835069
 20
650.0
 30
0.0
 40
4.5
  0
CIRCLE
  5
CE
100
AcDbEntity
  8
êÛö╩
370
               5
390
0
  6
Continuous
 62
               7
100
AcDbCircle
 10
-498.81841060835075
 20
650.0
 30
0.0
 40
3.5
  0
CIRCLE
  5
CF
100
AcDbEntity
  8
êÛö╩
370
               5
390
0
  6
Continuous
 62
               7
100
AcDbCircle
 10
-458.81841060835075
 20
650.0
 30
0.0
 40
3.5000000000000568
  0
POINT
  5
D0
100
AcDbEntity
  8
Éíû@
370
               5
390
0
  6
Continuous
 62
               7
100
AcDbPoint
 10
-478.81841060835069
 20
650.0
 30
0.0
  0
SPLINE
  5
D1
100
AcDbEntity
  8
êÛö╩
370
               5
390
0
  6
Continuous
 62
               7
100
AcDbSpline
210
0.0
220
0.0
230
1.0
 70
               9
 71
               2
 72
              17
 73
              14
 74
               0
 42
0.000001
 43
0.000001
 40
0.0
 40
0.0
 40
0.0
 40
1.0
 40
2.0
 40
3.0
 40
4.0
 40
5.0
 40
6.0
 40
7.0
 40
8.0
 40
9.0
 40
10.0
 40
11.0
 40
12.0
 40
12.0
 40
12.0
 10
-492.56841060835075
 20
-134.84455543377226
 30
0.0
 10
-486.18701340020664
 20
-132.49999999999994
 30
0.0
 10
-471.44980781649485
 20
-132.49999999999994
 30
0.0
 10
-458.68701340020664
 20
-137.1891108675446
 30
0.0
 10
-451.31841060835075
 20
-145.31088913245529
 30
0.0
 10
-451.31841060835075
 20
-154.6891108675446
 30
0.0
 10
-458.68701340020664
 20
-162.81088913245529
 30
0.0
 10
-471.44980781649485
 20
-167.49999999999994
 30
0.0
 10
-486.18701340020664
 20
-167.49999999999994
 30
0.0
 10
-498.94980781649485
 20
-162.81088913245529
 30
0.0
 10
-506.31841060835075
 20
-154.6891108675446
 30
0.0
 10
-506.31841060835075
 20
-145.31088913245529
 30
0.0
 10
-498.94980781649485
 20
-137.1891108675446
 30
0.0
 10
-492.56841060835075
 20
-134.84455543377226
 30
0.0
  0
CIRCLE
  5
D2
100
AcDbEntity
  8
êÛö╩
370
               5
390
0
  6
Continuous
 62
               7
100
AcDbCircle
 10
-498.81841060835075
 20
-149.99999999999994
 30
0.0
 40
2.25
  0
CIRCLE
  5
D3
100
AcDbEntity
  8
êÛö╩
370
               5
390
0
  6
Continuous
 62
               7
100
AcDbCircle
 10
-458.81841060835075
 20
-149.99999999999994
 30
0.0
 40
2.25
  0
CIRCLE
  5
D4
100
AcDbEntity
  8
êÛö╩
370
               5
390
0
  6
Continuous
 62
               7
100
AcDbCircle
 10
-478.81841060835069
 20
-149.99999999999994
 30
0.0
 40
4.5
  0
CIRCLE
  5
D5
100
AcDbEntity
  8
êÛö╩
370
               5
390
0
  6
Continuous
 62
               7
100
AcDbCircle
 10
-498.81841060835075
 20
-149.99999999999994
 30
0.0
 40
3.5
  0
CIRCLE
  5
D6
100
AcDbEntity
  8
êÛö╩
370
               5
390
0
  6
Continuous
 62
               7
100
AcDbCircle
 10
-458.81841060835075
 20
-149.99999999999994
 30
0.0
 40
3.5000000000000568
  0
POLYLINE
  5
D7
100
AcDbEntity
  8
Éíû@
370
               5
390
0
  6
Continuous
 62
               7
100
AcDb2dPolyline
 66
               1
 10
0.0
 20
0.0
 30
0.0
 70
               1
 75
               5
  0
VERTEX
  5
D8
100
AcDbEntity
  8
Éíû@
370
               5
390
0
  6
Continuous
 62
               7
100
AcDbVertex
100
AcDb2dVertex
 10
-1131.6151964235153
 20
-515.0
 30
0.0
  0
VERTEX
  5
D9
100
AcDbEntity
  8
Éíû@
370
               5
390
0
  6
Continuous
 62
               7
100
AcDbVertex
100
AcDb2dVertex
 10
168.38480357648473
 20
-515.0
 30
0.0
  0
VERTEX
  5
DA
100
AcDbEntity
  8
Éíû@
370
               5
390
0
  6
Continuous
 62
               7
100
AcDbVertex
100
AcDb2dVertex
 10
168.38480357648473
 20
-915.0
 30
0.0
  0
VERTEX
  5
DB
100
AcDbEntity
  8
Éíû@
370
               5
390
0
  6
Continuous
 62
               7
100
AcDbVertex
100
AcDb2dVertex
 10
-1131.6151964235153
 20
-915.0
 30
0.0
  0
SEQEND
  5
DC
100
AcDbEntity
  8
Éíû@
370
               5
390
0
  6
Continuous
 62
               7
  0
LINE
  5
DE
100
AcDbEntity
  8
Éíû@
370
               5
390
0
  6
Continuous
 62
               7
100
AcDbLine
 10
-1131.6151964235153
 20
-515.0
 30
0.0
 11
168.38480357648473
 21
-515.0
 31
0.0
  0
LINE
  5
DF
100
AcDbEntity
  8
Éíû@
370
               5
390
0
  6
Continuous
 62
               7
100
AcDbLine
 10
-1131.6151964235153
 20
-615.0
 30
0.0
 11
168.38480357648473
 21
-615.0
 31
0.0
  0
LINE
  5
E0
100
AcDbEntity
  8
Éíû@
370
               5
390
0
  6
Continuous
 62
               7
100
AcDbLine
 10
-1131.6151964235153
 20
-715.0
 30
0.0
 11
168.38480357648473
 21
-715.0
 31
0.0
  0
LINE
  5
E1
100
AcDbEntity
  8
Éíû@
370
               5
390
0
  6
Continuous
 62
               7
100
AcDbLine
 10
-1131.6151964235153
 20
-815.0
 30
0.0
 11
168.38480357648473
 21
-815.0
 31
0.0
  0
LINE
  5
E2
100
AcDbEntity
  8
Éíû@
370
               5
390
0
  6
Continuous
 62
               7
100
AcDbLine
 10
-781.61519642351527
 20
-515.0
 30
0.0
 11
-781.61519642351527
 21
-915.0
 31
0.0
  0
MTEXT
  5
E3
100
AcDbEntity
  8
Éíû@
390
0
 62
               7
100
AcDbMText
 10
-1030.7740571471493
 20
-762.0
 30
0.0
 40
48.851453993055557
 41
0.0
 71
               4
 72
               1
  1
color
  7
élér éoû¥Æ®
 73
               1
 44
0.8700528489132836
  0
MTEXT
  5
E4
100
AcDbEntity
  8
Éíû@
390
0
 62
               7
100
AcDbMText
 10
-1028.4301223247255
 20
-864.0
 30
0.0
 40
48.851453993055557
 41
0.0
 71
               4
 72
               1
  1
ìÌÄ┐
  7
élér éoû¥Æ®
 73
               1
 44
0.8700528489132836
  0
MTEXT
  5
E5
100
AcDbEntity
  8
Éíû@
390
0
 62
               7
100
AcDbMText
 10
-641.45333134227815
 20
-864.96402998194708
 30
0.0
 40
48.851453993055557
 41
0.0
 71
               4
 72
               1
  1
stkm25.4 t2.3
  7
élér éoû¥Æ®
 73
               1
 44
0.8700528489132836
  0
MTEXT
  5
E6
100
AcDbEntity
  8
Éíû@
390
0
 62
               7
100
AcDbMText
 10
-629.61519642351527
 20
-768.0
 30
0.0
 40
48.851453993055557
 41
0.0
 71
               4
 72
               1
  1
â}âbâgâuâëâbâN
  7
élér éoû¥Æ®
 73
               1
 44
0.8700528489132836
  0
MTEXT
  5
E7
100
AcDbEntity
  8
Éíû@
390
0
 62
               7
100
AcDbMText
 10
-1048.1152778368007
 20
-549.00001255567963
 30
0.0
 40
43.96630859375
 41
0.0
 71
               1
 72
               1
  1
Åñòiû╝
  7
élér éoû¥Æ®
 73
               1
 44
0.8700528489132836
  0
MTEXT
  5
E8
100
AcDbEntity
  8
Éíû@
390
0
 62
               7
100
AcDbMText
 10
-466.56434329013484
 20
-542.96992741234737
 30
0.0
 40
46.81884765625
 41
0.0
 71
               1
 72
               1
  1
Claude
  7
@BatangChe
 73
               1
 44
0.9395994574323784
  0
IMAGE
  5
E9
100
AcDbEntity
  8
Éíû@
390
0
 92
      140
310
00000000000000008400000006000000050000000000000000F0894061F188445E238DC000000000000000000000000000F08940FFFFFFFFFFFF7BC000000000000000007B12DB0161C49040FFFFFFFFFFFF7BC000000000000000007B12DB0161C4904061F188445E238DC000000000000000000000000000F0894061F188
310
445E238DC00000000000000000
100
AcDbRasterImage
 90
        0
 10
830.0
 20
-932.42102915751104
 30
0.0
 11
0.176411272599149
 21
0.0
 31
0.0
 12
0.0
 22
0.3031420708119594
 32
0.0
 13
1378.0
 23
1598.0
340
ED
 70
               7
280
               0
281
              50
282
              50
283
               0
360
EC
 71
               1
 91
        2
 14
-0.5
 24
-0.5
 14
1377.5
 24
1597.5
  0
WIPEOUT
  5
EE
100
AcDbEntity
  8
Éíû@
370
               5
390
0
  6
Continuous
 62
               7
 92
        0
100
AcDbWipeout
 90
        0
 10
-491.51841060835079
 20
-249.99999999999994
 30
0.0
 11
1000.0
 21
0.0
 31
0.0
 12
0.0
 22
1000.0
 32
0.0
 13
1.0
 23
1.0
340
0
 70
               7
280
               1
281
              50
282
              50
283
               0
360
0
 71
               2
 91
        5
 14
-0.5
 24
-0.5
 14
-0.4746
 24
-0.5
 14
-0.4746
 24
0.5
 14
-0.5
 24
0.5
 14
-0.5
 24
-0.5
  0
POLYLINE
  5
EF
100
AcDbEntity
  8
Éíû@
370
               5
390
0
  6
Continuous
 62
               7
100
AcDb2dPolyline
 66
               1
 10
0.0
 20
0.0
 30
0.0
 70
               1
 75
               5
  0
VERTEX
  5
F0
100
AcDbEntity
  8
Éíû@
370
               5
390
0
  6
Continuous
 62
               7
100
AcDbVertex
100
AcDb2dVertex
 10
-491.51841060835079
 20
750.0
 30
0.0
  0
VERTEX
  5
F1
100
AcDbEntity
  8
Éíû@
370
               5
390
0
  6
Continuous
 62
               7
100
AcDbVertex
100
AcDb2dVertex
 10
-466.11841060835076
 20
750.0
 30
0.0
  0
VERTEX
  5
F2
100
AcDbEntity
  8
Éíû@
370
               5
390
0
  6
Continuous
 62
               7
100
AcDbVertex
100
AcDb2dVertex
 10
-466.11841060835076
 20
-249.99999999999994
 30
0.0
  0
VERTEX
  5
F3
100
AcDbEntity
  8
Éíû@
370
               5
390
0
  6
Continuous
 62
               7
100
AcDbVertex
100
AcDb2dVertex
 10
-491.51841060835079
 20
-249.99999999999994
 30
0.0
  0
SEQEND
  5
F4
100
AcDbEntity
  8
Éíû@
370
               5
390
0
  6
Continuous
 62
               7
  0
POINT
  5
F6
100
AcDbEntity
  8
Éíû@
370
               5
390
0
  6
Continuous
 62
               7
100
AcDbPoint
 10
-478.81841060835069
 20
250.00000000000003
 30
0.0
  0
POINT
  5
F7
100
AcDbEntity
  8
Éíû@
370
               5
390
0
  6
Continuous
 62
               7
100
AcDbPoint
 10
-478.81841060835069
 20
-149.99999999999994
 30
0.0
  0
LINE
  5
F8
100
AcDbEntity
  8
Éíû@
370
               5
390
0
  6
Continuous
 62
               7
100
AcDbLine
 10
-962.21007863898535
 20
-290.0
 30
0.0
 11
-962.21007863898535
 21
795.0
 31
0.0
  0
HATCH
  5
F9
100
AcDbEntity
  8
Éíû@
370
              13
390
0
  6
Continuous
 62
               7
100
AcDbHatch
 10
0.0
 20
0.0
 30
0.0
210
0.0
220
0.0
230
1.0
  2
14-_U______-__
 70
               0
 71
               0
 91
        1
 92
        1
 93
        4
 72
               1
 10
-1072.2100786389867
 20
-290.0
 11
-1072.2100786389867
 21
795.0
 72
               1
 10
-1072.2100786389867
 20
795.0
 11
-962.21007863898535
 21
795.0
 72
               1
 10
-962.21007863898535
 20
795.0
 11
-962.21007863898535
 21
-290.0
 72
               1
 10
-962.21007863898535
 20
-290.0
 11
-1072.2100786389867
 21
-290.0
 97
        0
 75
               0
 76
               2
 52
0.0
 41
1.0
 77
               0
 78
               8
 53
45.0
 43
0.0
 44
0.0
 45
82.902777777777786
 46
-7.0555555555555554
 79
               2
 49
157.15448211871015
 49
-22.450640302672895
 53
45.0
 43
-12.788194444444445
 44
-24.253472222222225
 45
-12.668215631223775
 46
-101.984562146554
 79
               2
 49
67.351920908018641
 49
-112.25320151336442
 53
45.000000000000007
 43
11.225320151336438
 44
-11.225320151336442
 45
9.0594020708856551
 46
-80.496902070885639
 79
               2
 49
144.10419489999998
 49
-162.50047509999999
 53
45.0
 43
5.7326388888888884
 44
-27.781249999999996
 45
94.287019772995308
 46
4.4907580047824389
 79
               2
 49
139.19396987657186
 49
-40.411152544811195
 53
45.000000000000007
 43
22.450640302672877
 44
-22.450640302672884
 45
44.901280605345754
 46
-44.901280605345768
 79
               2
 49
42.083736000000002
 49
-10.520933999999997
 53
45.0
 43
28.063300378341101
 44
-28.063300378341104
 45
44.901280605345754
 46
-44.901280605345768
 79
               2
 49
35.229799999999997
 49
-57.480199999999989
 53
45.0
 43
33.675960454009314
 44
-33.675960454009321
 45
44.901280605345754
 46
-44.901280605345768
 79
               0
 53
45.000000000000007
 43
0.661458333333338
 44
-77.611111111111114
 45
44.901280605345754
 46
-44.901280605345768
 79
               2
 49
238.48256850000004
 49
-195.12210149999999
 98
        1
 10
0.0
 20
0.0
  0
POLYLINE
  5
FA
100
AcDbEntity
  8
Éíû@
370
               5
390
0
  6
Continuous
 62
               7
100
AcDb2dPolyline
 66
               1
 10
0.0
 20
0.0
 30
0.0
 70
               1
 75
               5
  0
VERTEX
  5
FB
100
AcDbEntity
  8
Éíû@
370
               5
390
0
  6
Continuous
 62
               7
100
AcDbVertex
100
AcDb2dVertex
 10
-962.21007863898535
 20
667.5
 30
0.0
  0
VERTEX
  5
FC
100
AcDbEntity
  8
Éíû@
370
               5
390
0
  6
Continuous
 62
               7
100
AcDbVertex
100
AcDb2dVertex
 10
-957.71007863898535
 20
667.5
 30
0.0
  0
VERTEX
  5
FD
100
AcDbEntity
  8
Éíû@
370
               5
390
0
  6
Continuous
 62
               7
100
AcDbVertex
100
AcDb2dVertex
 10
-957.71007863898535
 20
632.5
 30
0.0
  0
VERTEX
  5
FE
100
AcDbEntity
  8
Éíû@
370
               5
390
0
  6
Continuous
 62
               7
100
AcDbVertex
100
AcDb2dVertex
 10
-962.21007863898535
 20
632.5
 30
0.0
  0
SEQEND
  5
FF
100
AcDbEntity
  8
Éíû@
370
               5
390
0
  6
Continuous
 62
               7
  0
POLYLINE
  5
101
100
AcDbEntity
  8
Éíû@
370
               5
390
0
  6
Continuous
 62
               7
100
AcDb2dPolyline
 66
               1
 10
0.0
 20
0.0
 30
0.0
 70
               1
 75
               5
  0
VERTEX
  5
102
100
AcDbEntity
  8
Éíû@
370
               5
390
0
  6
Continuous
 62
               7
100
AcDbVertex
100
AcDb2dVertex
 10
-922.21007863898535
 20
752.5
 30
0.0
  0
VERTEX
  5
103
100
AcDbEntity
  8
Éíû@
370
               5
390
0
  6
Continuous
 62
               7
100
AcDbVertex
100
AcDb2dVertex
 10
-896.81007863898526
 20
752.5
 30
0.0
  0
VERTEX
  5
104
100
AcDbEntity
  8
Éíû@
370
               5
390
0
  6
Continuous
 62
               7
100
AcDbVertex
100
AcDb2dVertex
 10
-896.81007863898526
 20
-247.5
 30
0.0
  0
VERTEX
  5
105
100
AcDbEntity
  8
Éíû@
370
               5
390
0
  6
Continuous
 62
               7
100
AcDbVertex
100
AcDb2dVertex
 10
-922.21007863898535
 20
-247.5
 30
0.0
  0
SEQEND
  5
106
100
AcDbEntity
  8
Éíû@
370
               5
390
0
  6
Continuous
 62
               7
  0
LINE
  5
108
100
AcDbEntity
  8
Éíû@
370
               5
390
0
  6
Continuous
 62
               7
100
AcDbLine
 10
-957.71007863898535
 20
654.5
 30
0.0
 11
-922.21007863898535
 21
654.5
 31
0.0
  0
LINE
  5
109
100
AcDbEntity
  8
Éíû@
370
               5
390
0
  6
Continuous
 62
               7
100
AcDbLine
 10
-957.71007863898535
 20
645.5
 30
0.0
 11
-922.21007863898535
 21
645.5
 31
0.0
  0
POLYLINE
  5
10A
100
AcDbEntity
  8
Éíû@
370
               5
390
0
  6
Continuous
 62
               7
100
AcDb2dPolyline
 66
               1
 10
0.0
 20
0.0
 30
0.0
 70
               1
 75
               5
  0
VERTEX
  5
10B
100
AcDbEntity
  8
Éíû@
370
               5
390
0
  6
Continuous
 62
               7
100
AcDbVertex
100
AcDb2dVertex
 10
-962.21007863898535
 20
-132.49999999999994
 30
0.0
  0
VERTEX
  5
10C
100
AcDbEntity
  8
Éíû@
370
               5
390
0
  6
Continuous
 62
               7
100
AcDbVertex
100
AcDb2dVertex
 10
-957.71007863898535
 20
-132.49999999999994
 30
0.0
  0
VERTEX
  5
10D
100
AcDbEntity
  8
Éíû@
370
               5
390
0
  6
Continuous
 62
               7
100
AcDbVertex
100
AcDb2dVertex
 10
-957.71007863898535
 20
-167.49999999999994
 30
0.0
  0
VERTEX
  5
10E
100
AcDbEntity
  8
Éíû@
370
               5
390
0
  6
Continuous
 62
               7
100
AcDbVertex
100
AcDb2dVertex
 10
-962.21007863898535
 20
-167.49999999999994
 30
0.0
  0
SEQEND
  5
10F
100
AcDbEntity
  8
Éíû@
370
               5
390
0
  6
Continuous
 62
               7
  0
LINE
  5
111
100
AcDbEntity
  8
Éíû@
370
               5
390
0
  6
Continuous
 62
               7
100
AcDbLine
 10
-957.71007863898535
 20
-154.49999999999994
 30
0.0
 11
-922.21007863898535
 21
-154.49999999999994
 31
0.0
  0
LINE
  5
112
100
AcDbEntity
  8
Éíû@
370
               5
390
0
  6
Continuous
 62
               7
100
AcDbLine
 10
-957.71007863898535
 20
-145.49999999999994
 30
0.0
 11
-922.21007863898535
 21
-145.49999999999994
 31
0.0
  0
DIMENSION
  5
113
100
AcDbEntity
  8
Éíû@
370
               5
390
0
  6
Continuous
 62
               7
100
AcDbDimension
  2
*D1
 10
-373.81841060835075
 20
650.0
 30
0.0
 11
-373.81841060835075
 21
250.0
 31
0.0
 71
               5
 72
               1
 41
1.0
 42
0.0
  3
âJâXâ^âÇ
100
AcDbAlignedDimension
 13
-458.81841060835075
 23
-149.99999999999994
 33
0.0
 14
-458.81841060835075
 24
650.0
 34
0.0
 50
90.0
100
AcDbRotatedDimension
1001
ACAD
1000
DSTYLE
1002
{
1070
             279
1070
               2
1070
             340
1005
30
1070
             147
1040
15.875
1070
              41
1040
19.998779296874996
1002
}
  0
DIMENSION
  5
114
100
AcDbEntity
  8
Éíû@
370
               5
390
0
  6
Continuous
 62
               7
100
AcDbDimension
  2
*D2
 10
-922.21007863898535
 20
767.0
 30
0.0
 11
-942.21007863898535
 21
767.0
 31
0.0
 71
               5
 72
               1
 41
1.0
 42
0.0
  3
âJâXâ^âÇ
100
AcDbAlignedDimension
 13
-962.21007863898535
 23
692.5
 33
0.0
 14
-922.21007863898535
 24
692.5
 34
0.0
100
AcDbRotatedDimension
1001
ACAD
1000
DSTYLE
1002
{
1070
             279
1070
               2
1070
             340
1005
30
1070
             174
1070
               0
1070
             147
1040
15.875
1070
              41
1040
19.998779296874996
1002
}
  0
DIMENSION
  5
115
100
AcDbEntity
  8
Éíû@
370
               5
390
0
  6
Continuous
 62
               7
100
AcDbDimension
  2
*D3
 10
-251.21007863898535
 20
750.0
 30
0.0
 11
-251.21007863898535
 21
250.0
 31
0.0
 71
               5
 72
               1
 41
1.0
 42
0.0
  3
âJâXâ^âÇ
100
AcDbAlignedDimension
 13
-466.11841060835076
 23
-249.99999999999994
 33
0.0
 14
-466.11841060835076
 24
750.0
 34
0.0
 50
90.0
100
AcDbRotatedDimension
1001
ACAD
1000
DSTYLE
1002
{
1070
             279
1070
               2
1070
             340
1005
30
1070
             147
1040
15.875
1070
              41
1040
19.998779296874996
1002
}
  0
DIMENSION
  5
116
100
AcDbEntity
  8
Éíû@
370
               5
390
0
  6
Continuous
 62
               7
100
AcDbDimension
  2
*D4
 10
-373.81841060835131
 20
750.0
 30
0.0
 11
-373.81841060835131
 21
700.0
 31
0.0
 71
               5
 72
               1
 41
1.0
 42
0.0
  3
âJâXâ^âÇ
100
AcDbAlignedDimension
 13
-458.81841060835075
 23
650.0
 33
0.0
 14
-466.11841060835076
 24
750.0
 34
0.0
 50
90.0
100
AcDbRotatedDimension
1001
ACAD
1000
DSTYLE
1002
{
1070
             279
1070
               2
1070
             340
1005
30
1070
             147
1040
15.875
1070
              41
1040
19.998779296874996
1002
}
  0
DIMENSION
  5
117
100
AcDbEntity
  8
Éíû@
370
               5
390
0
  6
Continuous
 62
               7
100
AcDbDimension
  2
*D5
 10
-373.81841060835131
 20
-249.99999999999994
 30
0.0
 11
-373.81841060835131
 21
-199.99999999999994
 31
0.0
 71
               5
 72
               1
 41
1.0
 42
0.0
  3
âJâXâ^âÇ
100
AcDbAlignedDimension
 13
-458.81841060835075
 23
-149.99999999999994
 33
0.0
 14
-466.11841060835076
 24
-249.99999999999994
 34
0.0
 50
90.0
100
AcDbRotatedDimension
1001
ACAD
1000
DSTYLE
1002
{
1070
             279
1070
               2
1070
             340
1005
30
1070
             147
1040
15.875
1070
              41
1040
19.998779296874996
1002
}
  0
ENDSEC
  0
SECTION
  2
OBJECTS
  0
DICTIONARY
  5
19
100
AcDbDictionary
280
               0
281
               1
  3
ACAD_GROUP
350
1A
  3
ACAD_MLINESTYLE
350
1B
  3
ACAD_LAYOUT
350
1E
  3
ACAD_PLOTSETTINGS
350
22
  3
ACAD_PLOTSTYLENAME
350
1F
  3
ACAD_WIPEOUT_VARS
350
23
  3
ACAD_IMAGE_VARS
350
EA
  3
ACAD_IMAGE_DICT
350
EB
  0
DICTIONARY
  5
1A
102
{ACAD_REACTORS
330
19
102
}
100
AcDbDictionary
280
               0
281
               1
  0
DICTIONARY
  5
1B
102
{ACAD_REACTORS
330
19
102
}
100
AcDbDictionary
280
               0
281
               1
  3
Standard
350
1C
  0
MLINESTYLE
  5
1C
102
{ACAD_REACTORS
330
1B
102
}
100
AcDbMlineStyle
  2
Standard
 70
               0
  3

 62
               0
 51
90.0
 52
90.0
 71
               2
 49
0.5
 62
             256
  6
ByLayer
 49
-0.5
 62
             256
  6
ByLayer
  0
ACDBDICTIONARYWDFLT
  5
1F
102
{ACAD_REACTORS
330
19
102
}
100
AcDbDictionary
281
               1
  3
Normal
350
1D
100
AcDbDictionaryWithDefault
340
1D
  0
ACDBPLACEHOLDER
  5
1D
102
{ACAD_REACTORS
330
1F
102
}
  0
LAYOUT
  5
20
102
{ACAD_REACTORS
330
1E
102
}
100
AcDbPlotSettings
  1

  2

  4

  6

 40
0.0
 41
0.0
 42
0.0
 43
0.0
 44
0.0
 45
0.0
 46
0.0
 47
0.0
 48
0.0
 49
0.0
140
0.0
141
0.0
142
1.0
143
1.0
 70
            1024
 72
               0
 73
               0
 74
               0
  7

 75
               0
147
1.0
148
0.0
149
0.0
100
AcDbLayout
  1
Model
 70
               0
 71
               0
 10
0.0
 20
0.0
 11
0.0
 21
0.0
 12
0.0
 22
0.0
 32
0.0
 14
0.0
 24
0.0
 34
0.0
 15
0.0
 25
0.0
 35
0.0
146
0.0
 13
0.0
 23
0.0
 33
0.0
 16
0.0
 26
0.0
 36
0.0
 17
0.0
 27
0.0
 37
0.0
 76
               0
330
A
331
0
345
0
346
0
  0
LAYOUT
  5
21
102
{ACAD_REACTORS
330
1E
102
}
100
AcDbPlotSettings
  1

  2
none_device
  4

  6

 40
2.9633333333333454
 41
2.9633333333333454
 42
2.9633333333333454
 43
2.9633333333333454
 44
302.92666666666668
 45
215.9266666666667
 46
0.0
 47
0.0
 48
0.0
 49
0.0
140
0.0
141
0.0
142
1.0
143
1.0
 70
             640
 72
               1
 73
               0
 74
               5
  7

 75
               2
147
1.0
148
148.5
149
105.00000000000001
100
AcDbLayout
  1
âVü[âgâîâCâä-1
 70
               0
 71
               1
 10
-155.92500000000001
 20
-110.25000000000001
 11
155.92500000000001
 21
110.25000000000001
 12
0.0
 22
0.0
 32
0.0
 14
-113.16151964235154
 24
-93.242102915751104
 34
0.0
 15
148.31558467093845
 25
104.51550508215597
 35
0.0
146
0.0
 13
0.0
 23
0.0
 33
0.0
 16
0.0
 26
0.0
 36
0.0
 17
0.0
 27
0.0
 37
0.0
 76
               0
330
B
331
0
345
0
346
0
  0
DICTIONARY
  5
1E
102
{ACAD_REACTORS
330
19
102
}
100
AcDbDictionary
280
               0
281
               1
  3
âVü[âgâîâCâä-1
350
21
  3
Model
350
20
  0
DICTIONARY
  5
22
102
{ACAD_REACTORS
330
19
102
}
100
AcDbDictionary
280
               0
281
               1
  0
WIPEOUTVARIABLES
  5
23
100
AcDbWipeoutVariables
 70
               0
  0
RASTERVARIABLES
  5
EA
102
{ACAD_REACTORS
330
19
102
}
100
AcDbRasterVariables
 90
        0
 70
               1
 71
               1
 72
               0
  0
DICTIONARY
  5
EB
102
{ACAD_REACTORS
330
19
102
}
100
AcDbDictionary
280
               0
281
               1
  3
ârâbâgâ}âbâv3859613020
350
ED
  0
IMAGEDEF
  5
ED
102
{ACAD_REACTORS
330
EB
330
EC
102
}
100
AcDbRasterImageDef
 90
        0
  1
ârâbâgâ}âbâv3859613020.jpg
 10
1378.0
 20
1598.0
 11
0.176411272599149
 21
0.3031420708119594
280
               1
281
               0
  0
IMAGEDEF_REACTOR
  5
EC
100
AcDbRasterImageDefReactor
 90
        2
330
E9
  0
ENDSEC
  0
EOF
